<svg xmlns="http://www.w3.org/2000/svg" xmlns:xlink="http://www.w3.org/1999/xlink"  zoomAndPan="magnify" viewBox="35 330 820 240"  preserveAspectRatio="xMidYMid meet" version="1.0"><defs><g/><clipPath id="78ce2741fe"><path d="M 0.0390625 0 L 899.960938 0 L 899.960938 899.921875 L 0.0390625 899.921875 Z M 0.0390625 0 " clip-rule="nonzero"/></clipPath><clipPath id="6ba1cb414e"><path d="M 42.953125 340.296875 L 185.441406 340.296875 L 185.441406 559.277344 L 42.953125 559.277344 Z M 42.953125 340.296875 " clip-rule="nonzero"/></clipPath><clipPath id="b90a60cad9"><path d="M 90.03125 385.964844 L 105.03125 385.964844 L 105.03125 400.964844 L 90.03125 400.964844 Z M 90.03125 385.964844 " clip-rule="nonzero"/></clipPath><clipPath id="209be98629"><path d="M 0.03125 0.964844 L 15.03125 0.964844 L 15.03125 15.964844 L 0.03125 15.964844 Z M 0.03125 0.964844 " clip-rule="nonzero"/></clipPath><clipPath id="9a896764b5"><rect x="0" width="16" y="0" height="16"/></clipPath><clipPath id="a426c21f71"><path d="M 107.121094 385.964844 L 122.121094 385.964844 L 122.121094 400.964844 L 107.121094 400.964844 Z M 107.121094 385.964844 " clip-rule="nonzero"/></clipPath><clipPath id="3aa2fd21bd"><path d="M 0.121094 0.964844 L 15.121094 0.964844 L 15.121094 15.964844 L 0.121094 15.964844 Z M 0.121094 0.964844 " clip-rule="nonzero"/></clipPath><clipPath id="573484b74f"><rect x="0" width="16" y="0" height="16"/></clipPath><clipPath id="5d1889fa43"><path d="M 124.210938 385.964844 L 139.210938 385.964844 L 139.210938 400.964844 L 124.210938 400.964844 Z M 124.210938 385.964844 " clip-rule="nonzero"/></clipPath><clipPath id="fed84ad9f5"><path d="M 0.210938 0.964844 L 15.210938 0.964844 L 15.210938 15.964844 L 0.210938 15.964844 Z M 0.210938 0.964844 " clip-rule="nonzero"/></clipPath><clipPath id="fbb72042b5"><rect x="0" width="16" y="0" height="16"/></clipPath><clipPath id="b3f1cd8e7c"><path d="M 90.03125 402.34375 L 105.03125 402.34375 L 105.03125 417.34375 L 90.03125 417.34375 Z M 90.03125 402.34375 " clip-rule="nonzero"/></clipPath><clipPath id="bb24af2922"><path d="M 0.03125 0.34375 L 15.03125 0.34375 L 15.03125 15.34375 L 0.03125 15.34375 Z M 0.03125 0.34375 " clip-rule="nonzero"/></clipPath><clipPath id="a11ba5952b"><rect x="0" width="16" y="0" height="16"/></clipPath><clipPath id="771fe83cea"><path d="M 107.121094 402.34375 L 122.121094 402.34375 L 122.121094 417.34375 L 107.121094 417.34375 Z M 107.121094 402.34375 " clip-rule="nonzero"/></clipPath><clipPath id="c9a23fefcb"><path d="M 0.121094 0.34375 L 15.121094 0.34375 L 15.121094 15.34375 L 0.121094 15.34375 Z M 0.121094 0.34375 " clip-rule="nonzero"/></clipPath><clipPath id="c4817e73fd"><rect x="0" width="16" y="0" height="16"/></clipPath><clipPath id="ec69b35787"><path d="M 124.210938 402.34375 L 139.210938 402.34375 L 139.210938 417.34375 L 124.210938 417.34375 Z M 124.210938 402.34375 " clip-rule="nonzero"/></clipPath><clipPath id="618e60adf7"><path d="M 0.210938 0.34375 L 15.210938 0.34375 L 15.210938 15.34375 L 0.210938 15.34375 Z M 0.210938 0.34375 " clip-rule="nonzero"/></clipPath><clipPath id="9c64540deb"><rect x="0" width="16" y="0" height="16"/></clipPath><clipPath id="fe81052695"><path d="M 90.03125 418.722656 L 105.03125 418.722656 L 105.03125 433.71875 L 90.03125 433.71875 Z M 90.03125 418.722656 " clip-rule="nonzero"/></clipPath><clipPath id="b96bb177ba"><path d="M 0.03125 0.722656 L 15.03125 0.722656 L 15.03125 15.71875 L 0.03125 15.71875 Z M 0.03125 0.722656 " clip-rule="nonzero"/></clipPath><clipPath id="96b97ee07d"><rect x="0" width="16" y="0" height="16"/></clipPath><clipPath id="3f6116e06b"><path d="M 107.121094 418.722656 L 122.121094 418.722656 L 122.121094 433.71875 L 107.121094 433.71875 Z M 107.121094 418.722656 " clip-rule="nonzero"/></clipPath><clipPath id="049d7bd92d"><path d="M 0.121094 0.722656 L 15.121094 0.722656 L 15.121094 15.71875 L 0.121094 15.71875 Z M 0.121094 0.722656 " clip-rule="nonzero"/></clipPath><clipPath id="06964a3df5"><rect x="0" width="16" y="0" height="16"/></clipPath><clipPath id="06d9b1978f"><path d="M 124.210938 418.722656 L 139.210938 418.722656 L 139.210938 433.71875 L 124.210938 433.71875 Z M 124.210938 418.722656 " clip-rule="nonzero"/></clipPath><clipPath id="1c6c0f8ddf"><path d="M 0.210938 0.722656 L 15.210938 0.722656 L 15.210938 15.71875 L 0.210938 15.71875 Z M 0.210938 0.722656 " clip-rule="nonzero"/></clipPath><clipPath id="fc78578afc"><rect x="0" width="16" y="0" height="16"/></clipPath></defs><g clip-path="url(#6ba1cb414e)"><path fill="currentColor" d="M 185.710938 411.914062 C 185.710938 372.484375 153.753906 340.523438 114.339844 340.523438 C 74.921875 340.523438 42.953125 372.484375 42.953125 411.914062 C 42.953125 412.613281 43.046875 413.308594 43.058594 414.007812 C 43.058594 414.023438 43.007812 414.023438 43.007812 414.023438 C 43.007812 415.613281 43.125 417.277344 43.308594 419 C 43.34375 419.320312 43.394531 419.613281 43.410156 419.933594 C 43.597656 421.394531 43.828125 422.90625 44.113281 424.445312 C 44.300781 425.535156 44.496094 426.605469 44.746094 427.65625 C 55.644531 476.039062 114.324219 559.398438 114.324219 559.398438 C 114.324219 559.398438 167.007812 483.082031 181.84375 434.957031 C 183.015625 431.472656 183.933594 427.878906 184.574219 424.1875 C 185.269531 420.523438 185.707031 417.109375 185.707031 414.023438 C 185.707031 413.792969 185.625 413.589844 185.625 413.363281 C 185.632812 412.875 185.710938 412.410156 185.710938 411.914062 Z M 114.339844 449.167969 C 93.453125 449.167969 76.535156 432.25 76.535156 411.382812 C 76.535156 390.515625 93.445312 373.59375 114.339844 373.59375 C 135.195312 373.59375 152.128906 390.507812 152.128906 411.382812 C 152.125 432.246094 135.195312 449.167969 114.339844 449.167969 Z M 114.339844 449.167969 " fill-opacity="1" fill-rule="nonzero"/></g><g clip-path="url(#b90a60cad9)"><g transform="matrix(1, 0, 0, 1, 90, 385)"><g clip-path="url(#9a896764b5)"><g clip-path="url(#209be98629)"><path fill="#ec9b17" d="M 0.03125 0.964844 L 15.03125 0.964844 L 15.03125 15.964844 L 0.03125 15.964844 Z M 0.03125 0.964844 " fill-opacity="1" fill-rule="nonzero"/></g></g></g></g><g clip-path="url(#a426c21f71)"><g transform="matrix(1, 0, 0, 1, 107, 385)"><g clip-path="url(#573484b74f)"><g clip-path="url(#3aa2fd21bd)"><path fill="#ec9b17" d="M 0.121094 0.964844 L 15.121094 0.964844 L 15.121094 15.964844 L 0.121094 15.964844 Z M 0.121094 0.964844 " fill-opacity="1" fill-rule="nonzero"/></g></g></g></g><g clip-path="url(#5d1889fa43)"><g transform="matrix(1, 0, 0, 1, 124, 385)"><g clip-path="url(#fbb72042b5)"><g clip-path="url(#fed84ad9f5)"><path fill="#ec9b17" d="M 0.210938 0.964844 L 15.210938 0.964844 L 15.210938 15.964844 L 0.210938 15.964844 Z M 0.210938 0.964844 " fill-opacity="1" fill-rule="nonzero"/></g></g></g></g><g clip-path="url(#b3f1cd8e7c)"><g transform="matrix(1, 0, 0, 1, 90, 402)"><g clip-path="url(#a11ba5952b)"><g clip-path="url(#bb24af2922)"><path fill="#ec9b17" d="M 0.03125 0.34375 L 15.03125 0.34375 L 15.03125 15.34375 L 0.03125 15.34375 Z M 0.03125 0.34375 " fill-opacity="1" fill-rule="nonzero"/></g></g></g></g><g clip-path="url(#771fe83cea)"><g transform="matrix(1, 0, 0, 1, 107, 402)"><g clip-path="url(#c4817e73fd)"><g clip-path="url(#c9a23fefcb)"><path fill="#ec9b17" d="M 0.121094 0.34375 L 15.121094 0.34375 L 15.121094 15.34375 L 0.121094 15.34375 Z M 0.121094 0.34375 " fill-opacity="1" fill-rule="nonzero"/></g></g></g></g><g clip-path="url(#ec69b35787)"><g transform="matrix(1, 0, 0, 1, 124, 402)"><g clip-path="url(#9c64540deb)"><g clip-path="url(#618e60adf7)"><path fill="#ec9b17" d="M 0.210938 0.34375 L 15.210938 0.34375 L 15.210938 15.34375 L 0.210938 15.34375 Z M 0.210938 0.34375 " fill-opacity="1" fill-rule="nonzero"/></g></g></g></g><g clip-path="url(#fe81052695)"><g transform="matrix(1, 0, 0, 1, 90, 418)"><g clip-path="url(#96b97ee07d)"><g clip-path="url(#b96bb177ba)"><path fill="#ec9b17" d="M 0.03125 0.722656 L 15.03125 0.722656 L 15.03125 15.71875 L 0.03125 15.71875 Z M 0.03125 0.722656 " fill-opacity="1" fill-rule="nonzero"/></g></g></g></g><g clip-path="url(#3f6116e06b)"><g transform="matrix(1, 0, 0, 1, 107, 418)"><g clip-path="url(#06964a3df5)"><g clip-path="url(#049d7bd92d)"><path fill="#ec9b17" d="M 0.121094 0.722656 L 15.121094 0.722656 L 15.121094 15.71875 L 0.121094 15.71875 Z M 0.121094 0.722656 " fill-opacity="1" fill-rule="nonzero"/></g></g></g></g><g clip-path="url(#06d9b1978f)"><g transform="matrix(1, 0, 0, 1, 124, 418)"><g clip-path="url(#fc78578afc)"><g clip-path="url(#1c6c0f8ddf)"><path fill="#ec9b17" d="M 0.210938 0.722656 L 15.210938 0.722656 L 15.210938 15.71875 L 0.210938 15.71875 Z M 0.210938 0.722656 " fill-opacity="1" fill-rule="nonzero"/></g></g></g></g><g fill="currentColor" fill-opacity="1"><g transform="translate(211.414007, 494.956387)"><g><path d="M 40.046875 0 L 16.40625 0 L 16.40625 -16.046875 L 39.125 -16.046875 C 45.039062 -16.046875 49.988281 -17.101562 53.96875 -19.21875 C 57.957031 -21.34375 60.953125 -24.597656 62.953125 -28.984375 C 64.953125 -33.378906 65.953125 -38.945312 65.953125 -45.6875 C 65.953125 -52.375 64.953125 -57.898438 62.953125 -62.265625 C 60.953125 -66.640625 57.96875 -69.882812 54 -72 C 50.039062 -74.125 45.125 -75.1875 39.25 -75.1875 L 15.984375 -75.1875 L 15.984375 -91.234375 L 40.359375 -91.234375 C 49.535156 -91.234375 57.421875 -89.40625 64.015625 -85.75 C 70.609375 -82.101562 75.691406 -76.867188 79.265625 -70.046875 C 82.835938 -63.234375 84.625 -55.113281 84.625 -45.6875 C 84.625 -36.207031 82.847656 -28.054688 79.296875 -21.234375 C 75.742188 -14.421875 70.628906 -9.175781 63.953125 -5.5 C 57.285156 -1.832031 49.316406 0 40.046875 0 Z M 26.640625 -91.234375 L 26.640625 0 L 7.90625 0 L 7.90625 -91.234375 Z M 26.640625 -91.234375 "/></g></g></g><g fill="currentColor" fill-opacity="1"><g transform="translate(301.363723, 494.956387)"><g><path d="M 7.53125 0 L 7.53125 -67.609375 L 25.78125 -67.609375 L 25.78125 0 Z M 16.65625 -76.359375 C 13.832031 -76.359375 11.429688 -77.273438 9.453125 -79.109375 C 7.472656 -80.953125 6.484375 -83.195312 6.484375 -85.84375 C 6.484375 -88.5 7.472656 -90.742188 9.453125 -92.578125 C 11.429688 -94.421875 13.832031 -95.34375 16.65625 -95.34375 C 19.46875 -95.34375 21.851562 -94.421875 23.8125 -92.578125 C 25.769531 -90.742188 26.75 -88.5 26.75 -85.84375 C 26.75 -83.195312 25.769531 -80.953125 23.8125 -79.109375 C 21.851562 -77.273438 19.46875 -76.359375 16.65625 -76.359375 Z M 16.65625 -76.359375 "/></g></g></g><g fill="currentColor" fill-opacity="1"><g transform="translate(334.673896, 494.956387)"><g><path d="M 37.96875 26.9375 C 32.164062 26.9375 27.140625 26.179688 22.890625 24.671875 C 18.648438 23.160156 15.222656 21.066406 12.609375 18.390625 C 9.992188 15.722656 8.238281 12.65625 7.34375 9.1875 L 23.453125 5.8125 C 24.023438 7.164062 24.898438 8.429688 26.078125 9.609375 C 27.265625 10.796875 28.828125 11.753906 30.765625 12.484375 C 32.703125 13.222656 35.082031 13.59375 37.90625 13.59375 C 42.519531 13.59375 46.128906 12.488281 48.734375 10.28125 C 51.347656 8.082031 52.65625 4.695312 52.65625 0.125 L 52.65625 -11.875 L 51.5625 -11.875 C 50.625 -9.875 49.335938 -8.023438 47.703125 -6.328125 C 46.066406 -4.640625 44.003906 -3.285156 41.515625 -2.265625 C 39.023438 -1.242188 36.023438 -0.734375 32.515625 -0.734375 C 27.285156 -0.734375 22.566406 -1.988281 18.359375 -4.5 C 14.160156 -7.007812 10.828125 -10.734375 8.359375 -15.671875 C 5.890625 -20.609375 4.65625 -26.710938 4.65625 -33.984375 C 4.65625 -41.453125 5.910156 -47.757812 8.421875 -52.90625 C 10.929688 -58.050781 14.285156 -61.945312 18.484375 -64.59375 C 22.691406 -67.25 27.367188 -68.578125 32.515625 -68.578125 C 36.148438 -68.578125 39.242188 -67.984375 41.796875 -66.796875 C 44.347656 -65.617188 46.46875 -64.109375 48.15625 -62.265625 C 49.851562 -60.429688 51.191406 -58.535156 52.171875 -56.578125 L 52.71875 -56.578125 L 52.71875 -67.609375 L 70.78125 -67.609375 L 70.78125 -0.984375 C 70.78125 5.304688 69.367188 10.519531 66.546875 14.65625 C 63.734375 18.800781 59.867188 21.882812 54.953125 23.90625 C 50.035156 25.925781 44.375 26.9375 37.96875 26.9375 Z M 38.03125 -14.8125 C 41.164062 -14.8125 43.835938 -15.585938 46.046875 -17.140625 C 48.253906 -18.691406 49.9375 -20.90625 51.09375 -23.78125 C 52.257812 -26.664062 52.84375 -30.128906 52.84375 -34.171875 C 52.84375 -38.171875 52.257812 -41.648438 51.09375 -44.609375 C 49.9375 -47.566406 48.253906 -49.863281 46.046875 -51.5 C 43.835938 -53.132812 41.164062 -53.953125 38.03125 -53.953125 C 34.882812 -53.953125 32.21875 -53.113281 30.03125 -51.4375 C 27.851562 -49.757812 26.203125 -47.441406 25.078125 -44.484375 C 23.953125 -41.523438 23.390625 -38.085938 23.390625 -34.171875 C 23.390625 -30.210938 23.957031 -26.769531 25.09375 -23.84375 C 26.238281 -20.925781 27.90625 -18.691406 30.09375 -17.140625 C 32.28125 -15.585938 34.925781 -14.8125 38.03125 -14.8125 Z M 38.03125 -14.8125 "/></g></g></g><g fill="currentColor" fill-opacity="1"><g transform="translate(412.928301, 494.956387)"><g><path d="M 7.53125 0 L 7.53125 -67.609375 L 25.78125 -67.609375 L 25.78125 0 Z M 16.65625 -76.359375 C 13.832031 -76.359375 11.429688 -77.273438 9.453125 -79.109375 C 7.472656 -80.953125 6.484375 -83.195312 6.484375 -85.84375 C 6.484375 -88.5 7.472656 -90.742188 9.453125 -92.578125 C 11.429688 -94.421875 13.832031 -95.34375 16.65625 -95.34375 C 19.46875 -95.34375 21.851562 -94.421875 23.8125 -92.578125 C 25.769531 -90.742188 26.75 -88.5 26.75 -85.84375 C 26.75 -83.195312 25.769531 -80.953125 23.8125 -79.109375 C 21.851562 -77.273438 19.46875 -76.359375 16.65625 -76.359375 Z M 16.65625 -76.359375 "/></g></g></g><g fill="#ec9b17" fill-opacity="1"><g transform="translate(446.248774, 494.956387)"><g><path d="M 34.40625 0 L 2.453125 -91.234375 L 23.140625 -91.234375 L 37.78125 -47.15625 C 39.539062 -41.601562 41.328125 -35.507812 43.140625 -28.875 C 44.953125 -22.238281 46.878906 -15.003906 48.921875 -7.171875 L 44.578125 -7.171875 C 46.578125 -15.085938 48.453125 -22.34375 50.203125 -28.9375 C 51.960938 -35.53125 53.679688 -41.601562 55.359375 -47.15625 L 69.5 -91.234375 L 90.015625 -91.234375 L 58.78125 0 Z M 34.40625 0 "/></g></g></g><g fill="#ec9b17" fill-opacity="1"><g transform="translate(530.564602, 494.956387)"><g><path d="M 38.15625 1.34375 C 31.25 1.34375 25.296875 -0.0820312 20.296875 -2.9375 C 15.296875 -5.789062 11.4375 -9.832031 8.71875 -15.0625 C 6.007812 -20.289062 4.65625 -26.4375 4.65625 -33.5 C 4.65625 -40.476562 6 -46.585938 8.6875 -51.828125 C 11.382812 -57.078125 15.179688 -61.179688 20.078125 -64.140625 C 24.984375 -67.097656 30.722656 -68.578125 37.296875 -68.578125 C 41.828125 -68.578125 46.03125 -67.84375 49.90625 -66.375 C 53.78125 -64.90625 57.175781 -62.726562 60.09375 -59.84375 C 63.019531 -56.96875 65.285156 -53.378906 66.890625 -49.078125 C 68.503906 -44.773438 69.3125 -39.804688 69.3125 -34.171875 L 69.3125 -29.078125 L 11.9375 -29.078125 L 11.9375 -40.59375 L 60.4375 -40.59375 L 51.921875 -37.59375 C 51.921875 -41.101562 51.367188 -44.144531 50.265625 -46.71875 C 49.171875 -49.289062 47.550781 -51.28125 45.40625 -52.6875 C 43.257812 -54.09375 40.613281 -54.796875 37.46875 -54.796875 C 34.332031 -54.796875 31.660156 -54.082031 29.453125 -52.65625 C 27.242188 -51.226562 25.554688 -49.269531 24.390625 -46.78125 C 23.234375 -44.289062 22.65625 -41.429688 22.65625 -38.203125 L 22.65625 -30.125 C 22.65625 -26.332031 23.304688 -23.109375 24.609375 -20.453125 C 25.921875 -17.796875 27.769531 -15.785156 30.15625 -14.421875 C 32.539062 -13.054688 35.328125 -12.375 38.515625 -12.375 C 40.679688 -12.375 42.648438 -12.6875 44.421875 -13.3125 C 46.203125 -13.945312 47.710938 -14.863281 48.953125 -16.0625 C 50.203125 -17.269531 51.148438 -18.753906 51.796875 -20.515625 L 68.390625 -18.125 C 67.335938 -14.207031 65.429688 -10.785156 62.671875 -7.859375 C 59.921875 -4.941406 56.472656 -2.675781 52.328125 -1.0625 C 48.179688 0.539062 43.457031 1.34375 38.15625 1.34375 Z M 38.15625 1.34375 "/></g></g></g><g fill="#ec9b17" fill-opacity="1"><g transform="translate(604.287854, 494.956387)"><g><path d="M 25.78125 -38.828125 L 25.78125 0 L 7.53125 0 L 7.53125 -67.609375 L 24.921875 -67.609375 L 25.171875 -50.578125 L 23.640625 -50.578125 C 25.472656 -56.296875 28.234375 -60.722656 31.921875 -63.859375 C 35.617188 -67.003906 40.367188 -68.578125 46.171875 -68.578125 C 50.867188 -68.578125 54.972656 -67.554688 58.484375 -65.515625 C 61.992188 -63.472656 64.707031 -60.535156 66.625 -56.703125 C 68.539062 -52.867188 69.5 -48.253906 69.5 -42.859375 L 69.5 0 L 51.25 0 L 51.25 -39.625 C 51.25 -43.90625 50.164062 -47.238281 48 -49.625 C 45.84375 -52.019531 42.820312 -53.21875 38.9375 -53.21875 C 36.375 -53.21875 34.097656 -52.65625 32.109375 -51.53125 C 30.128906 -50.40625 28.578125 -48.78125 27.453125 -46.65625 C 26.335938 -44.53125 25.78125 -41.921875 25.78125 -38.828125 Z M 25.78125 -38.828125 "/></g></g></g><g fill="#ec9b17" fill-opacity="1"><g transform="translate(681.31762, 494.956387)"><g><path d="M 30.859375 0.984375 C 26.160156 0.984375 22.054688 -0.0351562 18.546875 -2.078125 C 15.035156 -4.117188 12.320312 -7.066406 10.40625 -10.921875 C 8.488281 -14.785156 7.53125 -19.390625 7.53125 -24.734375 L 7.53125 -67.609375 L 25.78125 -67.609375 L 25.78125 -27.984375 C 25.78125 -23.691406 26.867188 -20.363281 29.046875 -18 C 31.234375 -15.632812 34.25 -14.453125 38.09375 -14.453125 C 40.65625 -14.453125 42.925781 -15 44.90625 -16.09375 C 46.894531 -17.195312 48.445312 -18.820312 49.5625 -20.96875 C 50.6875 -23.113281 51.25 -25.71875 51.25 -28.78125 L 51.25 -67.609375 L 69.5625 -67.609375 L 69.5625 0 L 52.109375 0 L 51.859375 -17.015625 L 53.390625 -17.015625 C 51.515625 -11.304688 48.726562 -6.878906 45.03125 -3.734375 C 41.34375 -0.585938 36.617188 0.984375 30.859375 0.984375 Z M 30.859375 0.984375 "/></g></g></g><g fill="#ec9b17" fill-opacity="1"><g transform="translate(758.34742, 494.956387)"><g><path d="M 38.15625 1.34375 C 31.25 1.34375 25.296875 -0.0820312 20.296875 -2.9375 C 15.296875 -5.789062 11.4375 -9.832031 8.71875 -15.0625 C 6.007812 -20.289062 4.65625 -26.4375 4.65625 -33.5 C 4.65625 -40.476562 6 -46.585938 8.6875 -51.828125 C 11.382812 -57.078125 15.179688 -61.179688 20.078125 -64.140625 C 24.984375 -67.097656 30.722656 -68.578125 37.296875 -68.578125 C 41.828125 -68.578125 46.03125 -67.84375 49.90625 -66.375 C 53.78125 -64.90625 57.175781 -62.726562 60.09375 -59.84375 C 63.019531 -56.96875 65.285156 -53.378906 66.890625 -49.078125 C 68.503906 -44.773438 69.3125 -39.804688 69.3125 -34.171875 L 69.3125 -29.078125 L 11.9375 -29.078125 L 11.9375 -40.59375 L 60.4375 -40.59375 L 51.921875 -37.59375 C 51.921875 -41.101562 51.367188 -44.144531 50.265625 -46.71875 C 49.171875 -49.289062 47.550781 -51.28125 45.40625 -52.6875 C 43.257812 -54.09375 40.613281 -54.796875 37.46875 -54.796875 C 34.332031 -54.796875 31.660156 -54.082031 29.453125 -52.65625 C 27.242188 -51.226562 25.554688 -49.269531 24.390625 -46.78125 C 23.234375 -44.289062 22.65625 -41.429688 22.65625 -38.203125 L 22.65625 -30.125 C 22.65625 -26.332031 23.304688 -23.109375 24.609375 -20.453125 C 25.921875 -17.796875 27.769531 -15.785156 30.15625 -14.421875 C 32.539062 -13.054688 35.328125 -12.375 38.515625 -12.375 C 40.679688 -12.375 42.648438 -12.6875 44.421875 -13.3125 C 46.203125 -13.945312 47.710938 -14.863281 48.953125 -16.0625 C 50.203125 -17.269531 51.148438 -18.753906 51.796875 -20.515625 L 68.390625 -18.125 C 67.335938 -14.207031 65.429688 -10.785156 62.671875 -7.859375 C 59.921875 -4.941406 56.472656 -2.675781 52.328125 -1.0625 C 48.179688 0.539062 43.457031 1.34375 38.15625 1.34375 Z M 38.15625 1.34375 "/></g></g></g></svg>