<svg xmlns="http://www.w3.org/2000/svg" xmlns:xlink="http://www.w3.org/1999/xlink" width="1200" zoomAndPan="magnify" viewBox="0 0 900 907.92" height="1200" preserveAspectRatio="xMidYMid meet" version="1.0"><defs><g/><clipPath id="5638d3d140"><path d="M 0.0390625 0 L 899.960938 0 L 899.960938 899.921875 L 0.0390625 899.921875 Z M 0.0390625 0 " clip-rule="nonzero"/></clipPath><clipPath id="05a5e97abe"><path d="M 42.953125 340.296875 L 185.441406 340.296875 L 185.441406 559.277344 L 42.953125 559.277344 Z M 42.953125 340.296875 " clip-rule="nonzero"/></clipPath><clipPath id="a362b9ba5c"><path d="M 90.03125 385.964844 L 105.03125 385.964844 L 105.03125 400.964844 L 90.03125 400.964844 Z M 90.03125 385.964844 " clip-rule="nonzero"/></clipPath><clipPath id="42cc40ebb6"><path d="M 0.03125 0.964844 L 15.03125 0.964844 L 15.03125 15.964844 L 0.03125 15.964844 Z M 0.03125 0.964844 " clip-rule="nonzero"/></clipPath><clipPath id="2241de411b"><rect x="0" width="16" y="0" height="16"/></clipPath><clipPath id="ee7060bcb8"><path d="M 107.121094 385.964844 L 122.121094 385.964844 L 122.121094 400.964844 L 107.121094 400.964844 Z M 107.121094 385.964844 " clip-rule="nonzero"/></clipPath><clipPath id="dd354b1a49"><path d="M 0.121094 0.964844 L 15.121094 0.964844 L 15.121094 15.964844 L 0.121094 15.964844 Z M 0.121094 0.964844 " clip-rule="nonzero"/></clipPath><clipPath id="7ea5d822d9"><rect x="0" width="16" y="0" height="16"/></clipPath><clipPath id="0b33a2aa89"><path d="M 124.210938 385.964844 L 139.210938 385.964844 L 139.210938 400.964844 L 124.210938 400.964844 Z M 124.210938 385.964844 " clip-rule="nonzero"/></clipPath><clipPath id="3e46b1c1ad"><path d="M 0.210938 0.964844 L 15.210938 0.964844 L 15.210938 15.964844 L 0.210938 15.964844 Z M 0.210938 0.964844 " clip-rule="nonzero"/></clipPath><clipPath id="9e7ddb2805"><rect x="0" width="16" y="0" height="16"/></clipPath><clipPath id="8bcf603eb4"><path d="M 90.03125 402.34375 L 105.03125 402.34375 L 105.03125 417.34375 L 90.03125 417.34375 Z M 90.03125 402.34375 " clip-rule="nonzero"/></clipPath><clipPath id="5cfee9f9a8"><path d="M 0.03125 0.34375 L 15.03125 0.34375 L 15.03125 15.34375 L 0.03125 15.34375 Z M 0.03125 0.34375 " clip-rule="nonzero"/></clipPath><clipPath id="c8ad378de7"><rect x="0" width="16" y="0" height="16"/></clipPath><clipPath id="2044270daf"><path d="M 107.121094 402.34375 L 122.121094 402.34375 L 122.121094 417.34375 L 107.121094 417.34375 Z M 107.121094 402.34375 " clip-rule="nonzero"/></clipPath><clipPath id="bb099989a4"><path d="M 0.121094 0.34375 L 15.121094 0.34375 L 15.121094 15.34375 L 0.121094 15.34375 Z M 0.121094 0.34375 " clip-rule="nonzero"/></clipPath><clipPath id="8464d5834f"><rect x="0" width="16" y="0" height="16"/></clipPath><clipPath id="1a2bc0e705"><path d="M 124.210938 402.34375 L 139.210938 402.34375 L 139.210938 417.34375 L 124.210938 417.34375 Z M 124.210938 402.34375 " clip-rule="nonzero"/></clipPath><clipPath id="51850cc5b6"><path d="M 0.210938 0.34375 L 15.210938 0.34375 L 15.210938 15.34375 L 0.210938 15.34375 Z M 0.210938 0.34375 " clip-rule="nonzero"/></clipPath><clipPath id="189e90621d"><rect x="0" width="16" y="0" height="16"/></clipPath><clipPath id="6741e155fa"><path d="M 90.03125 418.722656 L 105.03125 418.722656 L 105.03125 433.71875 L 90.03125 433.71875 Z M 90.03125 418.722656 " clip-rule="nonzero"/></clipPath><clipPath id="d246202fba"><path d="M 0.03125 0.722656 L 15.03125 0.722656 L 15.03125 15.71875 L 0.03125 15.71875 Z M 0.03125 0.722656 " clip-rule="nonzero"/></clipPath><clipPath id="0c320be7c4"><rect x="0" width="16" y="0" height="16"/></clipPath><clipPath id="dcc247d239"><path d="M 107.121094 418.722656 L 122.121094 418.722656 L 122.121094 433.71875 L 107.121094 433.71875 Z M 107.121094 418.722656 " clip-rule="nonzero"/></clipPath><clipPath id="1efdea26b3"><path d="M 0.121094 0.722656 L 15.121094 0.722656 L 15.121094 15.71875 L 0.121094 15.71875 Z M 0.121094 0.722656 " clip-rule="nonzero"/></clipPath><clipPath id="28b77a1257"><rect x="0" width="16" y="0" height="16"/></clipPath><clipPath id="5d808ca062"><path d="M 124.210938 418.722656 L 139.210938 418.722656 L 139.210938 433.71875 L 124.210938 433.71875 Z M 124.210938 418.722656 " clip-rule="nonzero"/></clipPath><clipPath id="89db151299"><path d="M 0.210938 0.722656 L 15.210938 0.722656 L 15.210938 15.71875 L 0.210938 15.71875 Z M 0.210938 0.722656 " clip-rule="nonzero"/></clipPath><clipPath id="8a0b279b6c"><rect x="0" width="16" y="0" height="16"/></clipPath></defs><g clip-path="url(#5638d3d140)"><path fill="#ffffff" d="M 0.0390625 0 L 899.960938 0 L 899.960938 899.921875 L 0.0390625 899.921875 Z M 0.0390625 0 " fill-opacity="1" fill-rule="nonzero"/><path fill="#ffffff" d="M 0.0390625 0 L 899.960938 0 L 899.960938 899.921875 L 0.0390625 899.921875 Z M 0.0390625 0 " fill-opacity="1" fill-rule="nonzero"/></g><g fill="#0b2e5b" fill-opacity="1"><g transform="translate(210.664073, 460.493877)"><g><path d="M 40.046875 0 L 16.40625 0 L 16.40625 -16.046875 L 39.125 -16.046875 C 45.039062 -16.046875 49.988281 -17.101562 53.96875 -19.21875 C 57.957031 -21.34375 60.953125 -24.597656 62.953125 -28.984375 C 64.953125 -33.378906 65.953125 -38.945312 65.953125 -45.6875 C 65.953125 -52.375 64.953125 -57.898438 62.953125 -62.265625 C 60.953125 -66.640625 57.96875 -69.882812 54 -72 C 50.039062 -74.125 45.125 -75.1875 39.25 -75.1875 L 15.984375 -75.1875 L 15.984375 -91.234375 L 40.359375 -91.234375 C 49.535156 -91.234375 57.421875 -89.40625 64.015625 -85.75 C 70.609375 -82.101562 75.691406 -76.867188 79.265625 -70.046875 C 82.835938 -63.234375 84.625 -55.113281 84.625 -45.6875 C 84.625 -36.207031 82.847656 -28.054688 79.296875 -21.234375 C 75.742188 -14.421875 70.628906 -9.175781 63.953125 -5.5 C 57.285156 -1.832031 49.316406 0 40.046875 0 Z M 26.640625 -91.234375 L 26.640625 0 L 7.90625 0 L 7.90625 -91.234375 Z M 26.640625 -91.234375 "/></g></g></g><g fill="#0b2e5b" fill-opacity="1"><g transform="translate(300.613789, 460.493877)"><g><path d="M 7.53125 0 L 7.53125 -67.609375 L 25.78125 -67.609375 L 25.78125 0 Z M 16.65625 -76.359375 C 13.832031 -76.359375 11.429688 -77.273438 9.453125 -79.109375 C 7.472656 -80.953125 6.484375 -83.195312 6.484375 -85.84375 C 6.484375 -88.5 7.472656 -90.742188 9.453125 -92.578125 C 11.429688 -94.421875 13.832031 -95.34375 16.65625 -95.34375 C 19.46875 -95.34375 21.851562 -94.421875 23.8125 -92.578125 C 25.769531 -90.742188 26.75 -88.5 26.75 -85.84375 C 26.75 -83.195312 25.769531 -80.953125 23.8125 -79.109375 C 21.851562 -77.273438 19.46875 -76.359375 16.65625 -76.359375 Z M 16.65625 -76.359375 "/></g></g></g><g fill="#0b2e5b" fill-opacity="1"><g transform="translate(333.923962, 460.493877)"><g><path d="M 37.96875 26.9375 C 32.164062 26.9375 27.140625 26.179688 22.890625 24.671875 C 18.648438 23.160156 15.222656 21.066406 12.609375 18.390625 C 9.992188 15.722656 8.238281 12.65625 7.34375 9.1875 L 23.453125 5.8125 C 24.023438 7.164062 24.898438 8.429688 26.078125 9.609375 C 27.265625 10.796875 28.828125 11.753906 30.765625 12.484375 C 32.703125 13.222656 35.082031 13.59375 37.90625 13.59375 C 42.519531 13.59375 46.128906 12.488281 48.734375 10.28125 C 51.347656 8.082031 52.65625 4.695312 52.65625 0.125 L 52.65625 -11.875 L 51.5625 -11.875 C 50.625 -9.875 49.335938 -8.023438 47.703125 -6.328125 C 46.066406 -4.640625 44.003906 -3.285156 41.515625 -2.265625 C 39.023438 -1.242188 36.023438 -0.734375 32.515625 -0.734375 C 27.285156 -0.734375 22.566406 -1.988281 18.359375 -4.5 C 14.160156 -7.007812 10.828125 -10.734375 8.359375 -15.671875 C 5.890625 -20.609375 4.65625 -26.710938 4.65625 -33.984375 C 4.65625 -41.453125 5.910156 -47.757812 8.421875 -52.90625 C 10.929688 -58.050781 14.285156 -61.945312 18.484375 -64.59375 C 22.691406 -67.25 27.367188 -68.578125 32.515625 -68.578125 C 36.148438 -68.578125 39.242188 -67.984375 41.796875 -66.796875 C 44.347656 -65.617188 46.46875 -64.109375 48.15625 -62.265625 C 49.851562 -60.429688 51.191406 -58.535156 52.171875 -56.578125 L 52.71875 -56.578125 L 52.71875 -67.609375 L 70.78125 -67.609375 L 70.78125 -0.984375 C 70.78125 5.304688 69.367188 10.519531 66.546875 14.65625 C 63.734375 18.800781 59.867188 21.882812 54.953125 23.90625 C 50.035156 25.925781 44.375 26.9375 37.96875 26.9375 Z M 38.03125 -14.8125 C 41.164062 -14.8125 43.835938 -15.585938 46.046875 -17.140625 C 48.253906 -18.691406 49.9375 -20.90625 51.09375 -23.78125 C 52.257812 -26.664062 52.84375 -30.128906 52.84375 -34.171875 C 52.84375 -38.171875 52.257812 -41.648438 51.09375 -44.609375 C 49.9375 -47.566406 48.253906 -49.863281 46.046875 -51.5 C 43.835938 -53.132812 41.164062 -53.953125 38.03125 -53.953125 C 34.882812 -53.953125 32.21875 -53.113281 30.03125 -51.4375 C 27.851562 -49.757812 26.203125 -47.441406 25.078125 -44.484375 C 23.953125 -41.523438 23.390625 -38.085938 23.390625 -34.171875 C 23.390625 -30.210938 23.957031 -26.769531 25.09375 -23.84375 C 26.238281 -20.925781 27.90625 -18.691406 30.09375 -17.140625 C 32.28125 -15.585938 34.925781 -14.8125 38.03125 -14.8125 Z M 38.03125 -14.8125 "/></g></g></g><g fill="#0b2e5b" fill-opacity="1"><g transform="translate(412.178367, 460.493877)"><g><path d="M 7.53125 0 L 7.53125 -67.609375 L 25.78125 -67.609375 L 25.78125 0 Z M 16.65625 -76.359375 C 13.832031 -76.359375 11.429688 -77.273438 9.453125 -79.109375 C 7.472656 -80.953125 6.484375 -83.195312 6.484375 -85.84375 C 6.484375 -88.5 7.472656 -90.742188 9.453125 -92.578125 C 11.429688 -94.421875 13.832031 -95.34375 16.65625 -95.34375 C 19.46875 -95.34375 21.851562 -94.421875 23.8125 -92.578125 C 25.769531 -90.742188 26.75 -88.5 26.75 -85.84375 C 26.75 -83.195312 25.769531 -80.953125 23.8125 -79.109375 C 21.851562 -77.273438 19.46875 -76.359375 16.65625 -76.359375 Z M 16.65625 -76.359375 "/></g></g></g><g fill="#ec9b17" fill-opacity="1"><g transform="translate(445.49884, 460.493877)"><g><path d="M 34.40625 0 L 2.453125 -91.234375 L 23.140625 -91.234375 L 37.78125 -47.15625 C 39.539062 -41.601562 41.328125 -35.507812 43.140625 -28.875 C 44.953125 -22.238281 46.878906 -15.003906 48.921875 -7.171875 L 44.578125 -7.171875 C 46.578125 -15.085938 48.453125 -22.34375 50.203125 -28.9375 C 51.960938 -35.53125 53.679688 -41.601562 55.359375 -47.15625 L 69.5 -91.234375 L 90.015625 -91.234375 L 58.78125 0 Z M 34.40625 0 "/></g></g></g><g fill="#ec9b17" fill-opacity="1"><g transform="translate(529.814668, 460.493877)"><g><path d="M 38.15625 1.34375 C 31.25 1.34375 25.296875 -0.0820312 20.296875 -2.9375 C 15.296875 -5.789062 11.4375 -9.832031 8.71875 -15.0625 C 6.007812 -20.289062 4.65625 -26.4375 4.65625 -33.5 C 4.65625 -40.476562 6 -46.585938 8.6875 -51.828125 C 11.382812 -57.078125 15.179688 -61.179688 20.078125 -64.140625 C 24.984375 -67.097656 30.722656 -68.578125 37.296875 -68.578125 C 41.828125 -68.578125 46.03125 -67.84375 49.90625 -66.375 C 53.78125 -64.90625 57.175781 -62.726562 60.09375 -59.84375 C 63.019531 -56.96875 65.285156 -53.378906 66.890625 -49.078125 C 68.503906 -44.773438 69.3125 -39.804688 69.3125 -34.171875 L 69.3125 -29.078125 L 11.9375 -29.078125 L 11.9375 -40.59375 L 60.4375 -40.59375 L 51.921875 -37.59375 C 51.921875 -41.101562 51.367188 -44.144531 50.265625 -46.71875 C 49.171875 -49.289062 47.550781 -51.28125 45.40625 -52.6875 C 43.257812 -54.09375 40.613281 -54.796875 37.46875 -54.796875 C 34.332031 -54.796875 31.660156 -54.082031 29.453125 -52.65625 C 27.242188 -51.226562 25.554688 -49.269531 24.390625 -46.78125 C 23.234375 -44.289062 22.65625 -41.429688 22.65625 -38.203125 L 22.65625 -30.125 C 22.65625 -26.332031 23.304688 -23.109375 24.609375 -20.453125 C 25.921875 -17.796875 27.769531 -15.785156 30.15625 -14.421875 C 32.539062 -13.054688 35.328125 -12.375 38.515625 -12.375 C 40.679688 -12.375 42.648438 -12.6875 44.421875 -13.3125 C 46.203125 -13.945312 47.710938 -14.863281 48.953125 -16.0625 C 50.203125 -17.269531 51.148438 -18.753906 51.796875 -20.515625 L 68.390625 -18.125 C 67.335938 -14.207031 65.429688 -10.785156 62.671875 -7.859375 C 59.921875 -4.941406 56.472656 -2.675781 52.328125 -1.0625 C 48.179688 0.539062 43.457031 1.34375 38.15625 1.34375 Z M 38.15625 1.34375 "/></g></g></g><g fill="#ec9b17" fill-opacity="1"><g transform="translate(603.53792, 460.493877)"><g><path d="M 25.78125 -38.828125 L 25.78125 0 L 7.53125 0 L 7.53125 -67.609375 L 24.921875 -67.609375 L 25.171875 -50.578125 L 23.640625 -50.578125 C 25.472656 -56.296875 28.234375 -60.722656 31.921875 -63.859375 C 35.617188 -67.003906 40.367188 -68.578125 46.171875 -68.578125 C 50.867188 -68.578125 54.972656 -67.554688 58.484375 -65.515625 C 61.992188 -63.472656 64.707031 -60.535156 66.625 -56.703125 C 68.539062 -52.867188 69.5 -48.253906 69.5 -42.859375 L 69.5 0 L 51.25 0 L 51.25 -39.625 C 51.25 -43.90625 50.164062 -47.238281 48 -49.625 C 45.84375 -52.019531 42.820312 -53.21875 38.9375 -53.21875 C 36.375 -53.21875 34.097656 -52.65625 32.109375 -51.53125 C 30.128906 -50.40625 28.578125 -48.78125 27.453125 -46.65625 C 26.335938 -44.53125 25.78125 -41.921875 25.78125 -38.828125 Z M 25.78125 -38.828125 "/></g></g></g><g fill="#ec9b17" fill-opacity="1"><g transform="translate(680.567686, 460.493877)"><g><path d="M 30.859375 0.984375 C 26.160156 0.984375 22.054688 -0.0351562 18.546875 -2.078125 C 15.035156 -4.117188 12.320312 -7.066406 10.40625 -10.921875 C 8.488281 -14.785156 7.53125 -19.390625 7.53125 -24.734375 L 7.53125 -67.609375 L 25.78125 -67.609375 L 25.78125 -27.984375 C 25.78125 -23.691406 26.867188 -20.363281 29.046875 -18 C 31.234375 -15.632812 34.25 -14.453125 38.09375 -14.453125 C 40.65625 -14.453125 42.925781 -15 44.90625 -16.09375 C 46.894531 -17.195312 48.445312 -18.820312 49.5625 -20.96875 C 50.6875 -23.113281 51.25 -25.71875 51.25 -28.78125 L 51.25 -67.609375 L 69.5625 -67.609375 L 69.5625 0 L 52.109375 0 L 51.859375 -17.015625 L 53.390625 -17.015625 C 51.515625 -11.304688 48.726562 -6.878906 45.03125 -3.734375 C 41.34375 -0.585938 36.617188 0.984375 30.859375 0.984375 Z M 30.859375 0.984375 "/></g></g></g><g fill="#ec9b17" fill-opacity="1"><g transform="translate(757.597486, 460.493877)"><g><path d="M 38.15625 1.34375 C 31.25 1.34375 25.296875 -0.0820312 20.296875 -2.9375 C 15.296875 -5.789062 11.4375 -9.832031 8.71875 -15.0625 C 6.007812 -20.289062 4.65625 -26.4375 4.65625 -33.5 C 4.65625 -40.476562 6 -46.585938 8.6875 -51.828125 C 11.382812 -57.078125 15.179688 -61.179688 20.078125 -64.140625 C 24.984375 -67.097656 30.722656 -68.578125 37.296875 -68.578125 C 41.828125 -68.578125 46.03125 -67.84375 49.90625 -66.375 C 53.78125 -64.90625 57.175781 -62.726562 60.09375 -59.84375 C 63.019531 -56.96875 65.285156 -53.378906 66.890625 -49.078125 C 68.503906 -44.773438 69.3125 -39.804688 69.3125 -34.171875 L 69.3125 -29.078125 L 11.9375 -29.078125 L 11.9375 -40.59375 L 60.4375 -40.59375 L 51.921875 -37.59375 C 51.921875 -41.101562 51.367188 -44.144531 50.265625 -46.71875 C 49.171875 -49.289062 47.550781 -51.28125 45.40625 -52.6875 C 43.257812 -54.09375 40.613281 -54.796875 37.46875 -54.796875 C 34.332031 -54.796875 31.660156 -54.082031 29.453125 -52.65625 C 27.242188 -51.226562 25.554688 -49.269531 24.390625 -46.78125 C 23.234375 -44.289062 22.65625 -41.429688 22.65625 -38.203125 L 22.65625 -30.125 C 22.65625 -26.332031 23.304688 -23.109375 24.609375 -20.453125 C 25.921875 -17.796875 27.769531 -15.785156 30.15625 -14.421875 C 32.539062 -13.054688 35.328125 -12.375 38.515625 -12.375 C 40.679688 -12.375 42.648438 -12.6875 44.421875 -13.3125 C 46.203125 -13.945312 47.710938 -14.863281 48.953125 -16.0625 C 50.203125 -17.269531 51.148438 -18.753906 51.796875 -20.515625 L 68.390625 -18.125 C 67.335938 -14.207031 65.429688 -10.785156 62.671875 -7.859375 C 59.921875 -4.941406 56.472656 -2.675781 52.328125 -1.0625 C 48.179688 0.539062 43.457031 1.34375 38.15625 1.34375 Z M 38.15625 1.34375 "/></g></g></g><g fill="#4b5563" fill-opacity="1"><g transform="translate(298.864984, 547.375014)"><g><path d="M 15.96875 0 L 6.546875 0 L 6.546875 -6.390625 L 15.59375 -6.390625 C 17.957031 -6.390625 19.929688 -6.8125 21.515625 -7.65625 C 23.097656 -8.507812 24.285156 -9.8125 25.078125 -11.5625 C 25.878906 -13.3125 26.28125 -15.523438 26.28125 -18.203125 C 26.28125 -20.867188 25.878906 -23.070312 25.078125 -24.8125 C 24.285156 -26.5625 23.097656 -27.859375 21.515625 -28.703125 C 19.941406 -29.546875 17.984375 -29.96875 15.640625 -29.96875 L 6.375 -29.96875 L 6.375 -36.359375 L 16.078125 -36.359375 C 19.742188 -36.359375 22.890625 -35.628906 25.515625 -34.171875 C 28.140625 -32.722656 30.164062 -30.640625 31.59375 -27.921875 C 33.019531 -25.203125 33.734375 -21.960938 33.734375 -18.203125 C 33.734375 -14.429688 33.023438 -11.1875 31.609375 -8.46875 C 30.191406 -5.75 28.148438 -3.65625 25.484375 -2.1875 C 22.828125 -0.726562 19.65625 0 15.96875 0 Z M 10.609375 -36.359375 L 10.609375 0 L 3.140625 0 L 3.140625 -36.359375 Z M 10.609375 -36.359375 "/></g></g></g><g fill="#4b5563" fill-opacity="1"><g transform="translate(334.720477, 547.375014)"><g><path d="M 3 0 L 3 -26.9375 L 10.28125 -26.9375 L 10.28125 0 Z M 6.625 -30.4375 C 5.507812 -30.4375 4.554688 -30.800781 3.765625 -31.53125 C 2.972656 -32.257812 2.578125 -33.15625 2.578125 -34.21875 C 2.578125 -35.269531 2.972656 -36.160156 3.765625 -36.890625 C 4.554688 -37.628906 5.507812 -38 6.625 -38 C 7.75 -38 8.703125 -37.628906 9.484375 -36.890625 C 10.265625 -36.160156 10.65625 -35.269531 10.65625 -34.21875 C 10.65625 -33.15625 10.265625 -32.257812 9.484375 -31.53125 C 8.703125 -30.800781 7.75 -30.4375 6.625 -30.4375 Z M 6.625 -30.4375 "/></g></g></g><g fill="#4b5563" fill-opacity="1"><g transform="translate(347.998481, 547.375014)"><g><path d="M 15.125 10.734375 C 12.820312 10.734375 10.820312 10.429688 9.125 9.828125 C 7.4375 9.234375 6.070312 8.398438 5.03125 7.328125 C 3.988281 6.265625 3.285156 5.039062 2.921875 3.65625 L 9.34375 2.3125 C 9.570312 2.851562 9.921875 3.359375 10.390625 3.828125 C 10.867188 4.304688 11.492188 4.691406 12.265625 4.984375 C 13.035156 5.273438 13.984375 5.421875 15.109375 5.421875 C 16.941406 5.421875 18.378906 4.976562 19.421875 4.09375 C 20.460938 3.21875 20.984375 1.867188 20.984375 0.046875 L 20.984375 -4.734375 L 20.546875 -4.734375 C 20.171875 -3.929688 19.65625 -3.191406 19 -2.515625 C 18.351562 -1.847656 17.535156 -1.3125 16.546875 -0.90625 C 15.554688 -0.5 14.359375 -0.296875 12.953125 -0.296875 C 10.867188 -0.296875 8.988281 -0.796875 7.3125 -1.796875 C 5.644531 -2.796875 4.316406 -4.28125 3.328125 -6.25 C 2.347656 -8.21875 1.859375 -10.648438 1.859375 -13.546875 C 1.859375 -16.523438 2.359375 -19.035156 3.359375 -21.078125 C 4.359375 -23.128906 5.695312 -24.679688 7.375 -25.734375 C 9.050781 -26.796875 10.910156 -27.328125 12.953125 -27.328125 C 14.398438 -27.328125 15.632812 -27.09375 16.65625 -26.625 C 17.675781 -26.15625 18.519531 -25.550781 19.1875 -24.8125 C 19.863281 -24.082031 20.398438 -23.328125 20.796875 -22.546875 L 21.015625 -22.546875 L 21.015625 -26.9375 L 28.21875 -26.9375 L 28.21875 -0.390625 C 28.21875 2.117188 27.65625 4.195312 26.53125 5.84375 C 25.40625 7.5 23.863281 8.726562 21.90625 9.53125 C 19.945312 10.332031 17.6875 10.734375 15.125 10.734375 Z M 15.15625 -5.90625 C 16.40625 -5.90625 17.46875 -6.210938 18.34375 -6.828125 C 19.226562 -7.453125 19.898438 -8.335938 20.359375 -9.484375 C 20.828125 -10.628906 21.0625 -12.007812 21.0625 -13.625 C 21.0625 -15.21875 20.828125 -16.601562 20.359375 -17.78125 C 19.898438 -18.957031 19.226562 -19.867188 18.34375 -20.515625 C 17.46875 -21.171875 16.40625 -21.5 15.15625 -21.5 C 13.90625 -21.5 12.84375 -21.164062 11.96875 -20.5 C 11.101562 -19.832031 10.445312 -18.910156 10 -17.734375 C 9.550781 -16.554688 9.328125 -15.1875 9.328125 -13.625 C 9.328125 -12.039062 9.550781 -10.664062 10 -9.5 C 10.457031 -8.34375 11.117188 -7.453125 11.984375 -6.828125 C 12.859375 -6.210938 13.914062 -5.90625 15.15625 -5.90625 Z M 15.15625 -5.90625 "/></g></g></g><g fill="#4b5563" fill-opacity="1"><g transform="translate(379.192028, 547.375014)"><g><path d="M 3 0 L 3 -26.9375 L 10.28125 -26.9375 L 10.28125 0 Z M 6.625 -30.4375 C 5.507812 -30.4375 4.554688 -30.800781 3.765625 -31.53125 C 2.972656 -32.257812 2.578125 -33.15625 2.578125 -34.21875 C 2.578125 -35.269531 2.972656 -36.160156 3.765625 -36.890625 C 4.554688 -37.628906 5.507812 -38 6.625 -38 C 7.75 -38 8.703125 -37.628906 9.484375 -36.890625 C 10.265625 -36.160156 10.65625 -35.269531 10.65625 -34.21875 C 10.65625 -33.15625 10.265625 -32.257812 9.484375 -31.53125 C 8.703125 -30.800781 7.75 -30.4375 6.625 -30.4375 Z M 6.625 -30.4375 "/></g></g></g><g fill="#4b5563" fill-opacity="1"><g transform="translate(392.543256, 547.375014)"><g><path d="M 16.8125 -26.9375 L 16.8125 -21.359375 L 0.46875 -21.359375 L 0.46875 -26.9375 Z M 4.390625 -33.5625 L 11.671875 -33.5625 L 11.671875 -7.984375 C 11.671875 -7.117188 11.859375 -6.484375 12.234375 -6.078125 C 12.617188 -5.679688 13.257812 -5.484375 14.15625 -5.484375 C 14.476562 -5.484375 14.894531 -5.507812 15.40625 -5.5625 C 15.925781 -5.625 16.320312 -5.679688 16.59375 -5.734375 L 17.40625 -0.1875 C 16.664062 -0.0078125 15.894531 0.113281 15.09375 0.1875 C 14.300781 0.257812 13.53125 0.296875 12.78125 0.296875 C 10.019531 0.296875 7.929688 -0.335938 6.515625 -1.609375 C 5.097656 -2.890625 4.390625 -4.757812 4.390625 -7.21875 Z M 4.390625 -33.5625 "/></g></g></g><g fill="#4b5563" fill-opacity="1"><g transform="translate(411.166645, 547.375014)"><g><path d="M 10.671875 0.515625 C 8.941406 0.515625 7.394531 0.210938 6.03125 -0.390625 C 4.664062 -0.992188 3.59375 -1.890625 2.8125 -3.078125 C 2.03125 -4.273438 1.640625 -5.765625 1.640625 -7.546875 C 1.640625 -9.054688 1.914062 -10.316406 2.46875 -11.328125 C 3.019531 -12.335938 3.773438 -13.148438 4.734375 -13.765625 C 5.691406 -14.378906 6.785156 -14.84375 8.015625 -15.15625 C 9.242188 -15.476562 10.535156 -15.707031 11.890625 -15.84375 C 13.460938 -16 14.726562 -16.144531 15.6875 -16.28125 C 16.65625 -16.425781 17.359375 -16.644531 17.796875 -16.9375 C 18.234375 -17.226562 18.453125 -17.664062 18.453125 -18.25 L 18.453125 -18.375 C 18.453125 -19.125 18.285156 -19.765625 17.953125 -20.296875 C 17.617188 -20.828125 17.132812 -21.234375 16.5 -21.515625 C 15.863281 -21.796875 15.09375 -21.9375 14.1875 -21.9375 C 13.25 -21.9375 12.4375 -21.796875 11.75 -21.515625 C 11.0625 -21.234375 10.5 -20.847656 10.0625 -20.359375 C 9.632812 -19.878906 9.332031 -19.34375 9.15625 -18.75 L 2.4375 -19.59375 C 2.8125 -21.21875 3.523438 -22.609375 4.578125 -23.765625 C 5.640625 -24.921875 6.992188 -25.800781 8.640625 -26.40625 C 10.285156 -27.019531 12.15625 -27.328125 14.25 -27.328125 C 15.78125 -27.328125 17.234375 -27.148438 18.609375 -26.796875 C 19.984375 -26.441406 21.207031 -25.890625 22.28125 -25.140625 C 23.351562 -24.390625 24.191406 -23.441406 24.796875 -22.296875 C 25.410156 -21.148438 25.71875 -19.78125 25.71875 -18.1875 L 25.71875 0 L 18.765625 0 L 18.765625 -3.765625 L 18.546875 -3.765625 C 18.109375 -2.910156 17.523438 -2.160156 16.796875 -1.515625 C 16.078125 -0.878906 15.210938 -0.378906 14.203125 -0.015625 C 13.191406 0.335938 12.015625 0.515625 10.671875 0.515625 Z M 12.71875 -4.59375 C 13.875 -4.59375 14.878906 -4.816406 15.734375 -5.265625 C 16.597656 -5.722656 17.273438 -6.332031 17.765625 -7.09375 C 18.253906 -7.863281 18.5 -8.726562 18.5 -9.6875 L 18.5 -12.546875 C 18.269531 -12.410156 17.953125 -12.273438 17.546875 -12.140625 C 17.140625 -12.015625 16.675781 -11.90625 16.15625 -11.8125 C 15.632812 -11.71875 15.109375 -11.628906 14.578125 -11.546875 C 14.054688 -11.460938 13.570312 -11.390625 13.125 -11.328125 C 12.25 -11.191406 11.46875 -10.984375 10.78125 -10.703125 C 10.101562 -10.421875 9.578125 -10.035156 9.203125 -9.546875 C 8.828125 -9.066406 8.640625 -8.472656 8.640625 -7.765625 C 8.640625 -7.078125 8.8125 -6.5 9.15625 -6.03125 C 9.507812 -5.5625 9.988281 -5.203125 10.59375 -4.953125 C 11.207031 -4.710938 11.914062 -4.59375 12.71875 -4.59375 Z M 12.71875 -4.59375 "/></g></g></g><g fill="#4b5563" fill-opacity="1"><g transform="translate(439.870566, 547.375014)"><g><path d="M 10.28125 -36.359375 L 10.28125 0 L 3 0 L 3 -36.359375 Z M 10.28125 -36.359375 "/></g></g></g><g fill="#4b5563" fill-opacity="1"><g transform="translate(453.14857, 547.375014)"><g/></g></g><g fill="#4b5563" fill-opacity="1"><g transform="translate(464.742416, 547.375014)"><g><path d="M 3.140625 0 L 3.140625 -36.359375 L 27.890625 -36.359375 L 27.890625 -30.125 L 10.609375 -30.125 L 10.609375 -21.421875 L 26.578125 -21.421875 L 26.578125 -15.296875 L 10.609375 -15.296875 L 10.609375 -6.25 L 27.921875 -6.25 L 27.921875 0 Z M 3.140625 0 "/></g></g></g><g fill="#4b5563" fill-opacity="1"><g transform="translate(495.106076, 547.375014)"><g><path d="M 15.109375 0.53125 C 12.410156 0.53125 10.066406 -0.046875 8.078125 -1.203125 C 6.085938 -2.367188 4.550781 -3.992188 3.46875 -6.078125 C 2.394531 -8.171875 1.859375 -10.601562 1.859375 -13.375 C 1.859375 -16.15625 2.394531 -18.59375 3.46875 -20.6875 C 4.550781 -22.789062 6.085938 -24.421875 8.078125 -25.578125 C 10.066406 -26.742188 12.410156 -27.328125 15.109375 -27.328125 C 16.753906 -27.328125 18.265625 -27.113281 19.640625 -26.6875 C 21.015625 -26.257812 22.226562 -25.632812 23.28125 -24.8125 C 24.34375 -24 25.207031 -23.019531 25.875 -21.875 C 26.550781 -20.726562 27.003906 -19.441406 27.234375 -18.015625 L 20.40625 -17.03125 C 20.257812 -17.726562 20.039062 -18.351562 19.75 -18.90625 C 19.457031 -19.46875 19.085938 -19.945312 18.640625 -20.34375 C 18.203125 -20.738281 17.691406 -21.039062 17.109375 -21.25 C 16.535156 -21.46875 15.894531 -21.578125 15.1875 -21.578125 C 13.894531 -21.578125 12.8125 -21.234375 11.9375 -20.546875 C 11.070312 -19.867188 10.410156 -18.914062 9.953125 -17.6875 C 9.503906 -16.457031 9.28125 -15.03125 9.28125 -13.40625 C 9.28125 -11.789062 9.503906 -10.367188 9.953125 -9.140625 C 10.410156 -7.910156 11.070312 -6.945312 11.9375 -6.25 C 12.8125 -5.5625 13.894531 -5.21875 15.1875 -5.21875 C 15.894531 -5.21875 16.535156 -5.328125 17.109375 -5.546875 C 17.691406 -5.765625 18.207031 -6.078125 18.65625 -6.484375 C 19.101562 -6.898438 19.476562 -7.394531 19.78125 -7.96875 C 20.082031 -8.539062 20.296875 -9.195312 20.421875 -9.9375 L 27.265625 -8.9375 C 27.046875 -7.488281 26.597656 -6.1875 25.921875 -5.03125 C 25.253906 -3.875 24.390625 -2.875 23.328125 -2.03125 C 22.273438 -1.195312 21.050781 -0.5625 19.65625 -0.125 C 18.269531 0.3125 16.753906 0.53125 15.109375 0.53125 Z M 15.109375 0.53125 "/></g></g></g><g fill="#4b5563" fill-opacity="1"><g transform="translate(524.151733, 547.375014)"><g><path d="M 15.15625 0.53125 C 12.4375 0.53125 10.078125 -0.046875 8.078125 -1.203125 C 6.085938 -2.367188 4.550781 -3.992188 3.46875 -6.078125 C 2.394531 -8.171875 1.859375 -10.601562 1.859375 -13.375 C 1.859375 -16.175781 2.394531 -18.617188 3.46875 -20.703125 C 4.550781 -22.796875 6.085938 -24.421875 8.078125 -25.578125 C 10.078125 -26.742188 12.4375 -27.328125 15.15625 -27.328125 C 17.851562 -27.328125 20.195312 -26.742188 22.1875 -25.578125 C 24.1875 -24.421875 25.726562 -22.796875 26.8125 -20.703125 C 27.894531 -18.617188 28.4375 -16.175781 28.4375 -13.375 C 28.4375 -10.601562 27.894531 -8.171875 26.8125 -6.078125 C 25.726562 -3.992188 24.1875 -2.367188 22.1875 -1.203125 C 20.195312 -0.046875 17.851562 0.53125 15.15625 0.53125 Z M 15.15625 -5.21875 C 16.425781 -5.21875 17.492188 -5.566406 18.359375 -6.265625 C 19.234375 -6.972656 19.894531 -7.9375 20.34375 -9.15625 C 20.800781 -10.382812 21.03125 -11.800781 21.03125 -13.40625 C 21.03125 -15.007812 20.800781 -16.421875 20.34375 -17.640625 C 19.894531 -18.859375 19.234375 -19.816406 18.359375 -20.515625 C 17.492188 -21.222656 16.425781 -21.578125 15.15625 -21.578125 C 13.882812 -21.578125 12.804688 -21.222656 11.921875 -20.515625 C 11.046875 -19.816406 10.382812 -18.859375 9.9375 -17.640625 C 9.5 -16.421875 9.28125 -15.007812 9.28125 -13.40625 C 9.28125 -11.800781 9.5 -10.382812 9.9375 -9.15625 C 10.382812 -7.9375 11.046875 -6.972656 11.921875 -6.265625 C 12.796875 -5.566406 13.875 -5.21875 15.15625 -5.21875 Z M 15.15625 -5.21875 "/></g></g></g><g fill="#4b5563" fill-opacity="1"><g transform="translate(554.442169, 547.375014)"><g><path d="M 13.796875 0.5625 C 11.597656 0.5625 9.644531 0.242188 7.9375 -0.390625 C 6.238281 -1.035156 4.859375 -1.96875 3.796875 -3.1875 C 2.734375 -4.414062 2.0625 -5.882812 1.78125 -7.59375 L 8.640625 -8.515625 C 8.953125 -7.273438 9.546875 -6.335938 10.421875 -5.703125 C 11.296875 -5.078125 12.46875 -4.765625 13.9375 -4.765625 C 15.320312 -4.765625 16.410156 -5.023438 17.203125 -5.546875 C 18.003906 -6.078125 18.40625 -6.75 18.40625 -7.5625 C 18.40625 -8.257812 18.113281 -8.832031 17.53125 -9.28125 C 16.957031 -9.726562 16.09375 -10.078125 14.9375 -10.328125 L 10.28125 -11.25 C 7.675781 -11.789062 5.722656 -12.703125 4.421875 -13.984375 C 3.117188 -15.265625 2.46875 -16.925781 2.46875 -18.96875 C 2.46875 -20.675781 2.929688 -22.15625 3.859375 -23.40625 C 4.796875 -24.65625 6.113281 -25.617188 7.8125 -26.296875 C 9.519531 -26.984375 11.515625 -27.328125 13.796875 -27.328125 C 15.972656 -27.328125 17.859375 -27.019531 19.453125 -26.40625 C 21.046875 -25.789062 22.328125 -24.910156 23.296875 -23.765625 C 24.265625 -22.628906 24.878906 -21.289062 25.140625 -19.75 L 18.625 -18.84375 C 18.394531 -19.800781 17.882812 -20.582031 17.09375 -21.1875 C 16.300781 -21.800781 15.25 -22.109375 13.9375 -22.109375 C 12.71875 -22.109375 11.710938 -21.851562 10.921875 -21.34375 C 10.128906 -20.832031 9.734375 -20.171875 9.734375 -19.359375 C 9.734375 -18.671875 10 -18.09375 10.53125 -17.625 C 11.070312 -17.164062 11.953125 -16.816406 13.171875 -16.578125 L 18.0625 -15.59375 C 20.695312 -15.070312 22.648438 -14.207031 23.921875 -13 C 25.203125 -11.800781 25.84375 -10.234375 25.84375 -8.296875 C 25.84375 -6.523438 25.328125 -4.972656 24.296875 -3.640625 C 23.273438 -2.316406 21.859375 -1.285156 20.046875 -0.546875 C 18.234375 0.191406 16.148438 0.5625 13.796875 0.5625 Z M 13.796875 0.5625 "/></g></g></g><g fill="#4b5563" fill-opacity="1"><g transform="translate(581.876869, 547.375014)"><g><path d="M 2.984375 9.78125 L 4.296875 4.21875 L 5.71875 4.421875 C 6.601562 4.609375 7.382812 4.632812 8.0625 4.5 C 8.738281 4.375 9.285156 4.070312 9.703125 3.59375 C 10.117188 3.113281 10.390625 2.453125 10.515625 1.609375 L 10.84375 0.046875 L 0.65625 -26.9375 L 8.375 -26.9375 L 12.90625 -13.109375 C 13.457031 -11.378906 13.914062 -9.648438 14.28125 -7.921875 C 14.65625 -6.191406 15.0625 -4.394531 15.5 -2.53125 L 13.734375 -2.53125 C 14.179688 -4.394531 14.625 -6.195312 15.0625 -7.9375 C 15.5 -9.675781 15.992188 -11.398438 16.546875 -13.109375 L 21.265625 -26.9375 L 28.890625 -26.9375 L 17.359375 3.390625 C 16.796875 4.835938 16.097656 6.082031 15.265625 7.125 C 14.429688 8.164062 13.398438 8.960938 12.171875 9.515625 C 10.953125 10.066406 9.484375 10.34375 7.765625 10.34375 C 6.835938 10.34375 5.953125 10.289062 5.109375 10.1875 C 4.273438 10.082031 3.566406 9.945312 2.984375 9.78125 Z M 2.984375 9.78125 "/></g></g></g><g fill="#4b5563" fill-opacity="1"><g transform="translate(611.337429, 547.375014)"><g><path d="M 13.796875 0.5625 C 11.597656 0.5625 9.644531 0.242188 7.9375 -0.390625 C 6.238281 -1.035156 4.859375 -1.96875 3.796875 -3.1875 C 2.734375 -4.414062 2.0625 -5.882812 1.78125 -7.59375 L 8.640625 -8.515625 C 8.953125 -7.273438 9.546875 -6.335938 10.421875 -5.703125 C 11.296875 -5.078125 12.46875 -4.765625 13.9375 -4.765625 C 15.320312 -4.765625 16.410156 -5.023438 17.203125 -5.546875 C 18.003906 -6.078125 18.40625 -6.75 18.40625 -7.5625 C 18.40625 -8.257812 18.113281 -8.832031 17.53125 -9.28125 C 16.957031 -9.726562 16.09375 -10.078125 14.9375 -10.328125 L 10.28125 -11.25 C 7.675781 -11.789062 5.722656 -12.703125 4.421875 -13.984375 C 3.117188 -15.265625 2.46875 -16.925781 2.46875 -18.96875 C 2.46875 -20.675781 2.929688 -22.15625 3.859375 -23.40625 C 4.796875 -24.65625 6.113281 -25.617188 7.8125 -26.296875 C 9.519531 -26.984375 11.515625 -27.328125 13.796875 -27.328125 C 15.972656 -27.328125 17.859375 -27.019531 19.453125 -26.40625 C 21.046875 -25.789062 22.328125 -24.910156 23.296875 -23.765625 C 24.265625 -22.628906 24.878906 -21.289062 25.140625 -19.75 L 18.625 -18.84375 C 18.394531 -19.800781 17.882812 -20.582031 17.09375 -21.1875 C 16.300781 -21.800781 15.25 -22.109375 13.9375 -22.109375 C 12.71875 -22.109375 11.710938 -21.851562 10.921875 -21.34375 C 10.128906 -20.832031 9.734375 -20.171875 9.734375 -19.359375 C 9.734375 -18.671875 10 -18.09375 10.53125 -17.625 C 11.070312 -17.164062 11.953125 -16.816406 13.171875 -16.578125 L 18.0625 -15.59375 C 20.695312 -15.070312 22.648438 -14.207031 23.921875 -13 C 25.203125 -11.800781 25.84375 -10.234375 25.84375 -8.296875 C 25.84375 -6.523438 25.328125 -4.972656 24.296875 -3.640625 C 23.273438 -2.316406 21.859375 -1.285156 20.046875 -0.546875 C 18.234375 0.191406 16.148438 0.5625 13.796875 0.5625 Z M 13.796875 0.5625 "/></g></g></g><g fill="#4b5563" fill-opacity="1"><g transform="translate(638.991814, 547.375014)"><g><path d="M 16.8125 -26.9375 L 16.8125 -21.359375 L 0.46875 -21.359375 L 0.46875 -26.9375 Z M 4.390625 -33.5625 L 11.671875 -33.5625 L 11.671875 -7.984375 C 11.671875 -7.117188 11.859375 -6.484375 12.234375 -6.078125 C 12.617188 -5.679688 13.257812 -5.484375 14.15625 -5.484375 C 14.476562 -5.484375 14.894531 -5.507812 15.40625 -5.5625 C 15.925781 -5.625 16.320312 -5.679688 16.59375 -5.734375 L 17.40625 -0.1875 C 16.664062 -0.0078125 15.894531 0.113281 15.09375 0.1875 C 14.300781 0.257812 13.53125 0.296875 12.78125 0.296875 C 10.019531 0.296875 7.929688 -0.335938 6.515625 -1.609375 C 5.097656 -2.890625 4.390625 -4.757812 4.390625 -7.21875 Z M 4.390625 -33.5625 "/></g></g></g><g fill="#4b5563" fill-opacity="1"><g transform="translate(656.858495, 547.375014)"><g><path d="M 15.203125 0.53125 C 12.453125 0.53125 10.078125 -0.0351562 8.078125 -1.171875 C 6.085938 -2.304688 4.550781 -3.914062 3.46875 -6 C 2.394531 -8.082031 1.859375 -10.53125 1.859375 -13.34375 C 1.859375 -16.132812 2.394531 -18.570312 3.46875 -20.65625 C 4.539062 -22.75 6.050781 -24.382812 8 -25.5625 C 9.957031 -26.738281 12.242188 -27.328125 14.859375 -27.328125 C 16.671875 -27.328125 18.347656 -27.035156 19.890625 -26.453125 C 21.429688 -25.867188 22.785156 -25.003906 23.953125 -23.859375 C 25.117188 -22.710938 26.019531 -21.28125 26.65625 -19.5625 C 27.300781 -17.84375 27.625 -15.863281 27.625 -13.625 L 27.625 -11.59375 L 4.765625 -11.59375 L 4.765625 -16.1875 L 24.09375 -16.1875 L 20.703125 -14.984375 C 20.703125 -16.378906 20.476562 -17.585938 20.03125 -18.609375 C 19.59375 -19.640625 18.945312 -20.4375 18.09375 -21 C 17.238281 -21.5625 16.1875 -21.84375 14.9375 -21.84375 C 13.6875 -21.84375 12.617188 -21.554688 11.734375 -20.984375 C 10.859375 -20.421875 10.1875 -19.640625 9.71875 -18.640625 C 9.257812 -17.648438 9.03125 -16.515625 9.03125 -15.234375 L 9.03125 -12.015625 C 9.03125 -10.492188 9.289062 -9.203125 9.8125 -8.140625 C 10.332031 -7.085938 11.066406 -6.289062 12.015625 -5.75 C 12.972656 -5.207031 14.085938 -4.9375 15.359375 -4.9375 C 16.210938 -4.9375 16.992188 -5.0625 17.703125 -5.3125 C 18.410156 -5.5625 19.007812 -5.925781 19.5 -6.40625 C 20 -6.882812 20.378906 -7.472656 20.640625 -8.171875 L 27.265625 -7.21875 C 26.835938 -5.65625 26.070312 -4.289062 24.96875 -3.125 C 23.875 -1.96875 22.5 -1.066406 20.84375 -0.421875 C 19.195312 0.210938 17.316406 0.53125 15.203125 0.53125 Z M 15.203125 0.53125 "/></g></g></g><g fill="#4b5563" fill-opacity="1"><g transform="translate(686.245842, 547.375014)"><g><path d="M 3 0 L 3 -26.9375 L 9.8125 -26.9375 L 10.109375 -20.375 L 9.59375 -20.375 C 10.007812 -22 10.628906 -23.328125 11.453125 -24.359375 C 12.273438 -25.398438 13.238281 -26.164062 14.34375 -26.65625 C 15.457031 -27.144531 16.625 -27.390625 17.84375 -27.390625 C 19.789062 -27.390625 21.394531 -26.773438 22.65625 -25.546875 C 23.914062 -24.328125 24.804688 -22.488281 25.328125 -20.03125 L 24.5 -20.03125 C 24.875 -21.695312 25.515625 -23.066406 26.421875 -24.140625 C 27.328125 -25.222656 28.398438 -26.035156 29.640625 -26.578125 C 30.890625 -27.117188 32.210938 -27.390625 33.609375 -27.390625 C 35.265625 -27.390625 36.75 -27.023438 38.0625 -26.296875 C 39.375 -25.578125 40.40625 -24.53125 41.15625 -23.15625 C 41.914062 -21.78125 42.296875 -20.097656 42.296875 -18.109375 L 42.296875 0 L 35 0 L 35 -16.71875 C 35 -18.257812 34.582031 -19.410156 33.75 -20.171875 C 32.925781 -20.929688 31.898438 -21.3125 30.671875 -21.3125 C 29.742188 -21.3125 28.941406 -21.109375 28.265625 -20.703125 C 27.597656 -20.304688 27.078125 -19.75 26.703125 -19.03125 C 26.335938 -18.320312 26.15625 -17.476562 26.15625 -16.5 L 26.15625 0 L 19.109375 0 L 19.109375 -16.9375 C 19.109375 -18.269531 18.710938 -19.332031 17.921875 -20.125 C 17.140625 -20.914062 16.117188 -21.3125 14.859375 -21.3125 C 13.992188 -21.3125 13.21875 -21.113281 12.53125 -20.71875 C 11.84375 -20.332031 11.296875 -19.757812 10.890625 -19 C 10.484375 -18.238281 10.28125 -17.304688 10.28125 -16.203125 L 10.28125 0 Z M 3 0 "/></g></g></g><g fill="#4b5563" fill-opacity="1"><g transform="translate(731.529967, 547.375014)"><g/></g></g><g clip-path="url(#05a5e97abe)"><path fill="#0b2e5b" d="M 185.710938 411.914062 C 185.710938 372.484375 153.753906 340.523438 114.339844 340.523438 C 74.921875 340.523438 42.953125 372.484375 42.953125 411.914062 C 42.953125 412.613281 43.046875 413.308594 43.058594 414.007812 C 43.058594 414.023438 43.007812 414.023438 43.007812 414.023438 C 43.007812 415.613281 43.125 417.277344 43.308594 419 C 43.34375 419.320312 43.394531 419.613281 43.410156 419.933594 C 43.597656 421.394531 43.828125 422.90625 44.113281 424.445312 C 44.300781 425.535156 44.496094 426.605469 44.746094 427.65625 C 55.644531 476.039062 114.324219 559.398438 114.324219 559.398438 C 114.324219 559.398438 167.007812 483.082031 181.84375 434.957031 C 183.015625 431.472656 183.933594 427.878906 184.574219 424.1875 C 185.269531 420.523438 185.707031 417.109375 185.707031 414.023438 C 185.707031 413.792969 185.625 413.589844 185.625 413.363281 C 185.632812 412.875 185.710938 412.410156 185.710938 411.914062 Z M 114.339844 449.167969 C 93.453125 449.167969 76.535156 432.25 76.535156 411.382812 C 76.535156 390.515625 93.445312 373.59375 114.339844 373.59375 C 135.195312 373.59375 152.128906 390.507812 152.128906 411.382812 C 152.125 432.246094 135.195312 449.167969 114.339844 449.167969 Z M 114.339844 449.167969 " fill-opacity="1" fill-rule="nonzero"/></g><g clip-path="url(#a362b9ba5c)"><g transform="matrix(1, 0, 0, 1, 90, 385)"><g clip-path="url(#2241de411b)"><g clip-path="url(#42cc40ebb6)"><path fill="#ec9b17" d="M 0.03125 0.964844 L 15.03125 0.964844 L 15.03125 15.964844 L 0.03125 15.964844 Z M 0.03125 0.964844 " fill-opacity="1" fill-rule="nonzero"/></g></g></g></g><g clip-path="url(#ee7060bcb8)"><g transform="matrix(1, 0, 0, 1, 107, 385)"><g clip-path="url(#7ea5d822d9)"><g clip-path="url(#dd354b1a49)"><path fill="#ec9b17" d="M 0.121094 0.964844 L 15.121094 0.964844 L 15.121094 15.964844 L 0.121094 15.964844 Z M 0.121094 0.964844 " fill-opacity="1" fill-rule="nonzero"/></g></g></g></g><g clip-path="url(#0b33a2aa89)"><g transform="matrix(1, 0, 0, 1, 124, 385)"><g clip-path="url(#9e7ddb2805)"><g clip-path="url(#3e46b1c1ad)"><path fill="#ec9b17" d="M 0.210938 0.964844 L 15.210938 0.964844 L 15.210938 15.964844 L 0.210938 15.964844 Z M 0.210938 0.964844 " fill-opacity="1" fill-rule="nonzero"/></g></g></g></g><g clip-path="url(#8bcf603eb4)"><g transform="matrix(1, 0, 0, 1, 90, 402)"><g clip-path="url(#c8ad378de7)"><g clip-path="url(#5cfee9f9a8)"><path fill="#ec9b17" d="M 0.03125 0.34375 L 15.03125 0.34375 L 15.03125 15.34375 L 0.03125 15.34375 Z M 0.03125 0.34375 " fill-opacity="1" fill-rule="nonzero"/></g></g></g></g><g clip-path="url(#2044270daf)"><g transform="matrix(1, 0, 0, 1, 107, 402)"><g clip-path="url(#8464d5834f)"><g clip-path="url(#bb099989a4)"><path fill="#ec9b17" d="M 0.121094 0.34375 L 15.121094 0.34375 L 15.121094 15.34375 L 0.121094 15.34375 Z M 0.121094 0.34375 " fill-opacity="1" fill-rule="nonzero"/></g></g></g></g><g clip-path="url(#1a2bc0e705)"><g transform="matrix(1, 0, 0, 1, 124, 402)"><g clip-path="url(#189e90621d)"><g clip-path="url(#51850cc5b6)"><path fill="#ec9b17" d="M 0.210938 0.34375 L 15.210938 0.34375 L 15.210938 15.34375 L 0.210938 15.34375 Z M 0.210938 0.34375 " fill-opacity="1" fill-rule="nonzero"/></g></g></g></g><g clip-path="url(#6741e155fa)"><g transform="matrix(1, 0, 0, 1, 90, 418)"><g clip-path="url(#0c320be7c4)"><g clip-path="url(#d246202fba)"><path fill="#ec9b17" d="M 0.03125 0.722656 L 15.03125 0.722656 L 15.03125 15.71875 L 0.03125 15.71875 Z M 0.03125 0.722656 " fill-opacity="1" fill-rule="nonzero"/></g></g></g></g><g clip-path="url(#dcc247d239)"><g transform="matrix(1, 0, 0, 1, 107, 418)"><g clip-path="url(#28b77a1257)"><g clip-path="url(#1efdea26b3)"><path fill="#ec9b17" d="M 0.121094 0.722656 L 15.121094 0.722656 L 15.121094 15.71875 L 0.121094 15.71875 Z M 0.121094 0.722656 " fill-opacity="1" fill-rule="nonzero"/></g></g></g></g><g clip-path="url(#5d808ca062)"><g transform="matrix(1, 0, 0, 1, 124, 418)"><g clip-path="url(#8a0b279b6c)"><g clip-path="url(#89db151299)"><path fill="#ec9b17" d="M 0.210938 0.722656 L 15.210938 0.722656 L 15.210938 15.71875 L 0.210938 15.71875 Z M 0.210938 0.722656 " fill-opacity="1" fill-rule="nonzero"/></g></g></g></g></svg>