<svg xmlns="http://www.w3.org/2000/svg" xmlns:xlink="http://www.w3.org/1999/xlink" width="1200" zoomAndPan="magnify" viewBox="0 0 900 899.99999" height="1200" preserveAspectRatio="xMidYMid meet" version="1.0"><defs><g/><clipPath id="164fb227ad"><path d="M 0.765625 0.71875 L 288.679688 0.71875 L 288.679688 442.890625 L 0.765625 442.890625 Z M 0.765625 0.71875 " clip-rule="nonzero"/></clipPath><clipPath id="e5dd8e9bc1"><path d="M 95.890625 92.691406 L 126.195312 92.691406 L 126.195312 122.996094 L 95.890625 122.996094 Z M 95.890625 92.691406 " clip-rule="nonzero"/></clipPath><clipPath id="016c2f426a"><path d="M 0.890625 0.691406 L 31.195312 0.691406 L 31.195312 30.996094 L 0.890625 30.996094 Z M 0.890625 0.691406 " clip-rule="nonzero"/></clipPath><clipPath id="71df6ef7c0"><rect x="0" width="32" y="0" height="31"/></clipPath><clipPath id="a25f83b456"><path d="M 130.421875 92.691406 L 160.730469 92.691406 L 160.730469 122.996094 L 130.421875 122.996094 Z M 130.421875 92.691406 " clip-rule="nonzero"/></clipPath><clipPath id="5a7a235a52"><path d="M 0.421875 0.691406 L 30.730469 0.691406 L 30.730469 30.996094 L 0.421875 30.996094 Z M 0.421875 0.691406 " clip-rule="nonzero"/></clipPath><clipPath id="1d7b7d0e33"><rect x="0" width="31" y="0" height="31"/></clipPath><clipPath id="ae963f6185"><path d="M 164.957031 92.691406 L 195.261719 92.691406 L 195.261719 122.996094 L 164.957031 122.996094 Z M 164.957031 92.691406 " clip-rule="nonzero"/></clipPath><clipPath id="dfadc6c9dd"><path d="M 0.957031 0.691406 L 31.261719 0.691406 L 31.261719 30.996094 L 0.957031 30.996094 Z M 0.957031 0.691406 " clip-rule="nonzero"/></clipPath><clipPath id="aed0749a36"><rect x="0" width="32" y="0" height="31"/></clipPath><clipPath id="0546ea6b46"><path d="M 95.890625 125.785156 L 126.195312 125.785156 L 126.195312 156.089844 L 95.890625 156.089844 Z M 95.890625 125.785156 " clip-rule="nonzero"/></clipPath><clipPath id="9a66c26466"><path d="M 0.890625 0.785156 L 31.195312 0.785156 L 31.195312 31.089844 L 0.890625 31.089844 Z M 0.890625 0.785156 " clip-rule="nonzero"/></clipPath><clipPath id="4af6475dd0"><rect x="0" width="32" y="0" height="32"/></clipPath><clipPath id="a2a6fc9f03"><path d="M 130.421875 125.785156 L 160.730469 125.785156 L 160.730469 156.089844 L 130.421875 156.089844 Z M 130.421875 125.785156 " clip-rule="nonzero"/></clipPath><clipPath id="1ac56183e9"><path d="M 0.421875 0.785156 L 30.730469 0.785156 L 30.730469 31.089844 L 0.421875 31.089844 Z M 0.421875 0.785156 " clip-rule="nonzero"/></clipPath><clipPath id="3a6d9c9985"><rect x="0" width="31" y="0" height="32"/></clipPath><clipPath id="47d9708b59"><path d="M 164.957031 125.785156 L 195.261719 125.785156 L 195.261719 156.089844 L 164.957031 156.089844 Z M 164.957031 125.785156 " clip-rule="nonzero"/></clipPath><clipPath id="f3d02e083d"><path d="M 0.957031 0.785156 L 31.261719 0.785156 L 31.261719 31.089844 L 0.957031 31.089844 Z M 0.957031 0.785156 " clip-rule="nonzero"/></clipPath><clipPath id="251eef330e"><rect x="0" width="32" y="0" height="32"/></clipPath><clipPath id="213065f3e4"><path d="M 95.890625 158.878906 L 126.195312 158.878906 L 126.195312 189.183594 L 95.890625 189.183594 Z M 95.890625 158.878906 " clip-rule="nonzero"/></clipPath><clipPath id="68625d6d23"><path d="M 0.890625 0.878906 L 31.195312 0.878906 L 31.195312 31.183594 L 0.890625 31.183594 Z M 0.890625 0.878906 " clip-rule="nonzero"/></clipPath><clipPath id="b82ddebe3e"><rect x="0" width="32" y="0" height="32"/></clipPath><clipPath id="94371f125d"><path d="M 130.421875 158.878906 L 160.730469 158.878906 L 160.730469 189.183594 L 130.421875 189.183594 Z M 130.421875 158.878906 " clip-rule="nonzero"/></clipPath><clipPath id="e18b843668"><path d="M 0.421875 0.878906 L 30.730469 0.878906 L 30.730469 31.183594 L 0.421875 31.183594 Z M 0.421875 0.878906 " clip-rule="nonzero"/></clipPath><clipPath id="0bdae4b5db"><rect x="0" width="31" y="0" height="32"/></clipPath><clipPath id="1493585754"><path d="M 164.957031 158.878906 L 195.261719 158.878906 L 195.261719 189.183594 L 164.957031 189.183594 Z M 164.957031 158.878906 " clip-rule="nonzero"/></clipPath><clipPath id="fc30590793"><path d="M 0.957031 0.878906 L 31.261719 0.878906 L 31.261719 31.183594 L 0.957031 31.183594 Z M 0.957031 0.878906 " clip-rule="nonzero"/></clipPath><clipPath id="949b6e3a64"><rect x="0" width="32" y="0" height="32"/></clipPath><clipPath id="f973942eb3"><rect x="0" width="290" y="0" height="444"/></clipPath></defs><rect x="-90" width="1080" fill="#ffffff" y="-89.999999" height="1079.999988" fill-opacity="1"/><rect x="-90" width="1080" fill="#ffffff" y="-89.999999" height="1079.999988" fill-opacity="1"/><g transform="matrix(1, 0, 0, 1, 305, 138)"><g clip-path="url(#f973942eb3)"><g clip-path="url(#164fb227ad)"><path fill="#0b2e5b" d="M 289.226562 145.125 C 289.226562 65.445312 224.652344 0.867188 145.007812 0.867188 C 65.355469 0.867188 0.765625 65.445312 0.765625 145.125 C 0.765625 146.53125 0.953125 147.9375 0.96875 149.351562 C 0.96875 149.386719 0.871094 149.386719 0.871094 149.386719 C 0.871094 152.601562 1.105469 155.957031 1.480469 159.4375 C 1.550781 160.085938 1.648438 160.679688 1.683594 161.324219 C 2.058594 164.277344 2.523438 167.332031 3.105469 170.445312 C 3.480469 172.640625 3.875 174.808594 4.382812 176.933594 C 26.40625 274.699219 144.972656 443.136719 144.972656 443.136719 C 144.972656 443.136719 251.429688 288.925781 281.40625 191.679688 C 283.773438 184.640625 285.632812 177.382812 286.929688 169.925781 C 288.332031 162.519531 289.214844 155.621094 289.214844 149.386719 C 289.214844 148.917969 289.046875 148.507812 289.046875 148.050781 C 289.066406 147.0625 289.226562 146.121094 289.226562 145.125 Z M 145.007812 220.398438 C 102.804688 220.398438 68.617188 186.214844 68.617188 144.050781 C 68.617188 101.878906 102.785156 67.691406 145.007812 67.691406 C 187.148438 67.691406 221.363281 101.871094 221.363281 144.050781 C 221.363281 186.207031 187.148438 220.398438 145.007812 220.398438 Z M 145.007812 220.398438 " fill-opacity="1" fill-rule="nonzero"/></g><g clip-path="url(#e5dd8e9bc1)"><g transform="matrix(1, 0, 0, 1, 95, 92)"><g clip-path="url(#71df6ef7c0)"><g clip-path="url(#016c2f426a)"><path fill="#ec9b17" d="M 0.890625 0.691406 L 31.195312 0.691406 L 31.195312 30.996094 L 0.890625 30.996094 Z M 0.890625 0.691406 " fill-opacity="1" fill-rule="nonzero"/></g></g></g></g><g clip-path="url(#a25f83b456)"><g transform="matrix(1, 0, 0, 1, 130, 92)"><g clip-path="url(#1d7b7d0e33)"><g clip-path="url(#5a7a235a52)"><path fill="#ec9b17" d="M 0.421875 0.691406 L 30.730469 0.691406 L 30.730469 30.996094 L 0.421875 30.996094 Z M 0.421875 0.691406 " fill-opacity="1" fill-rule="nonzero"/></g></g></g></g><g clip-path="url(#ae963f6185)"><g transform="matrix(1, 0, 0, 1, 164, 92)"><g clip-path="url(#aed0749a36)"><g clip-path="url(#dfadc6c9dd)"><path fill="#ec9b17" d="M 0.957031 0.691406 L 31.261719 0.691406 L 31.261719 30.996094 L 0.957031 30.996094 Z M 0.957031 0.691406 " fill-opacity="1" fill-rule="nonzero"/></g></g></g></g><g clip-path="url(#0546ea6b46)"><g transform="matrix(1, 0, 0, 1, 95, 125)"><g clip-path="url(#4af6475dd0)"><g clip-path="url(#9a66c26466)"><path fill="#ec9b17" d="M 0.890625 0.785156 L 31.195312 0.785156 L 31.195312 31.089844 L 0.890625 31.089844 Z M 0.890625 0.785156 " fill-opacity="1" fill-rule="nonzero"/></g></g></g></g><g clip-path="url(#a2a6fc9f03)"><g transform="matrix(1, 0, 0, 1, 130, 125)"><g clip-path="url(#3a6d9c9985)"><g clip-path="url(#1ac56183e9)"><path fill="#ec9b17" d="M 0.421875 0.785156 L 30.730469 0.785156 L 30.730469 31.089844 L 0.421875 31.089844 Z M 0.421875 0.785156 " fill-opacity="1" fill-rule="nonzero"/></g></g></g></g><g clip-path="url(#47d9708b59)"><g transform="matrix(1, 0, 0, 1, 164, 125)"><g clip-path="url(#251eef330e)"><g clip-path="url(#f3d02e083d)"><path fill="#ec9b17" d="M 0.957031 0.785156 L 31.261719 0.785156 L 31.261719 31.089844 L 0.957031 31.089844 Z M 0.957031 0.785156 " fill-opacity="1" fill-rule="nonzero"/></g></g></g></g><g clip-path="url(#213065f3e4)"><g transform="matrix(1, 0, 0, 1, 95, 158)"><g clip-path="url(#b82ddebe3e)"><g clip-path="url(#68625d6d23)"><path fill="#ec9b17" d="M 0.890625 0.878906 L 31.195312 0.878906 L 31.195312 31.183594 L 0.890625 31.183594 Z M 0.890625 0.878906 " fill-opacity="1" fill-rule="nonzero"/></g></g></g></g><g clip-path="url(#94371f125d)"><g transform="matrix(1, 0, 0, 1, 130, 158)"><g clip-path="url(#0bdae4b5db)"><g clip-path="url(#e18b843668)"><path fill="#ec9b17" d="M 0.421875 0.878906 L 30.730469 0.878906 L 30.730469 31.183594 L 0.421875 31.183594 Z M 0.421875 0.878906 " fill-opacity="1" fill-rule="nonzero"/></g></g></g></g><g clip-path="url(#1493585754)"><g transform="matrix(1, 0, 0, 1, 164, 158)"><g clip-path="url(#949b6e3a64)"><g clip-path="url(#fc30590793)"><path fill="#ec9b17" d="M 0.957031 0.878906 L 31.261719 0.878906 L 31.261719 31.183594 L 0.957031 31.183594 Z M 0.957031 0.878906 " fill-opacity="1" fill-rule="nonzero"/></g></g></g></g></g></g><g fill="#0b2e5b" fill-opacity="1"><g transform="translate(78.800524, 725.591934)"><g><path d="M 47.90625 0 L 19.625 0 L 19.625 -19.1875 L 46.796875 -19.1875 C 53.878906 -19.1875 59.800781 -20.457031 64.5625 -23 C 69.320312 -25.539062 72.894531 -29.429688 75.28125 -34.671875 C 77.675781 -39.921875 78.875 -46.578125 78.875 -54.640625 C 78.875 -62.648438 77.675781 -69.265625 75.28125 -74.484375 C 72.894531 -79.710938 69.332031 -83.59375 64.59375 -86.125 C 59.863281 -88.664062 53.984375 -89.9375 46.953125 -89.9375 L 19.109375 -89.9375 L 19.109375 -109.125 L 48.265625 -109.125 C 59.253906 -109.125 68.691406 -106.9375 76.578125 -102.5625 C 84.460938 -98.195312 90.539062 -91.9375 94.8125 -83.78125 C 99.082031 -75.632812 101.21875 -65.921875 101.21875 -54.640625 C 101.21875 -43.304688 99.09375 -33.5625 94.84375 -25.40625 C 90.601562 -17.257812 84.488281 -10.988281 76.5 -6.59375 C 68.519531 -2.195312 58.988281 0 47.90625 0 Z M 31.859375 -109.125 L 31.859375 0 L 9.453125 0 L 9.453125 -109.125 Z M 31.859375 -109.125 "/></g></g><g transform="translate(186.393292, 725.591934)"><g><path d="M 9.015625 0 L 9.015625 -80.859375 L 30.828125 -80.859375 L 30.828125 0 Z M 19.921875 -91.328125 C 16.546875 -91.328125 13.675781 -92.425781 11.3125 -94.625 C 8.945312 -96.820312 7.765625 -99.507812 7.765625 -102.6875 C 7.765625 -105.863281 8.945312 -108.546875 11.3125 -110.734375 C 13.675781 -112.929688 16.546875 -114.03125 19.921875 -114.03125 C 23.285156 -114.03125 26.140625 -112.929688 28.484375 -110.734375 C 30.828125 -108.546875 32 -105.863281 32 -102.6875 C 32 -99.507812 30.828125 -96.820312 28.484375 -94.625 C 26.140625 -92.425781 23.285156 -91.328125 19.921875 -91.328125 Z M 19.921875 -91.328125 "/></g></g><g transform="translate(226.23704, 725.591934)"><g><path d="M 45.40625 32.234375 C 38.476562 32.234375 32.472656 31.328125 27.390625 29.515625 C 22.316406 27.710938 18.21875 25.210938 15.09375 22.015625 C 11.96875 18.816406 9.867188 15.140625 8.796875 10.984375 L 28.046875 6.953125 C 28.734375 8.566406 29.785156 10.082031 31.203125 11.5 C 32.617188 12.914062 34.484375 14.0625 36.796875 14.9375 C 39.117188 15.820312 41.96875 16.265625 45.34375 16.265625 C 50.851562 16.265625 55.171875 14.941406 58.296875 12.296875 C 61.421875 9.660156 62.984375 5.609375 62.984375 0.140625 L 62.984375 -14.203125 L 61.671875 -14.203125 C 60.546875 -11.816406 59.003906 -9.609375 57.046875 -7.578125 C 55.097656 -5.554688 52.632812 -3.929688 49.65625 -2.703125 C 46.675781 -1.484375 43.085938 -0.875 38.890625 -0.875 C 32.640625 -0.875 27 -2.375 21.96875 -5.375 C 16.9375 -8.382812 12.941406 -12.84375 9.984375 -18.75 C 7.035156 -24.65625 5.5625 -31.957031 5.5625 -40.65625 C 5.5625 -49.582031 7.0625 -57.125 10.0625 -63.28125 C 13.070312 -69.4375 17.085938 -74.097656 22.109375 -77.265625 C 27.140625 -80.441406 32.734375 -82.03125 38.890625 -82.03125 C 43.234375 -82.03125 46.929688 -81.320312 49.984375 -79.90625 C 53.035156 -78.488281 55.570312 -76.679688 57.59375 -74.484375 C 59.625 -72.285156 61.226562 -70.015625 62.40625 -67.671875 L 63.0625 -67.671875 L 63.0625 -80.859375 L 84.671875 -80.859375 L 84.671875 -1.171875 C 84.671875 6.347656 82.984375 12.582031 79.609375 17.53125 C 76.242188 22.488281 71.617188 26.175781 65.734375 28.59375 C 59.847656 31.019531 53.070312 32.234375 45.40625 32.234375 Z M 45.484375 -17.71875 C 49.242188 -17.71875 52.441406 -18.644531 55.078125 -20.5 C 57.710938 -22.363281 59.722656 -25.015625 61.109375 -28.453125 C 62.503906 -31.898438 63.203125 -36.039062 63.203125 -40.875 C 63.203125 -45.65625 62.503906 -49.816406 61.109375 -53.359375 C 59.722656 -56.898438 57.710938 -59.644531 55.078125 -61.59375 C 52.441406 -63.550781 49.242188 -64.53125 45.484375 -64.53125 C 41.722656 -64.53125 38.535156 -63.523438 35.921875 -61.515625 C 33.304688 -59.515625 31.328125 -56.742188 29.984375 -53.203125 C 28.648438 -49.671875 27.984375 -45.5625 27.984375 -40.875 C 27.984375 -36.132812 28.664062 -32.019531 30.03125 -28.53125 C 31.394531 -25.039062 33.382812 -22.363281 36 -20.5 C 38.613281 -18.644531 41.773438 -17.71875 45.484375 -17.71875 Z M 45.484375 -17.71875 "/></g></g><g transform="translate(319.840551, 725.591934)"><g><path d="M 9.015625 0 L 9.015625 -80.859375 L 30.828125 -80.859375 L 30.828125 0 Z M 19.921875 -91.328125 C 16.546875 -91.328125 13.675781 -92.425781 11.3125 -94.625 C 8.945312 -96.820312 7.765625 -99.507812 7.765625 -102.6875 C 7.765625 -105.863281 8.945312 -108.546875 11.3125 -110.734375 C 13.675781 -112.929688 16.546875 -114.03125 19.921875 -114.03125 C 23.285156 -114.03125 26.140625 -112.929688 28.484375 -110.734375 C 30.828125 -108.546875 32 -105.863281 32 -102.6875 C 32 -99.507812 30.828125 -96.820312 28.484375 -94.625 C 26.140625 -92.425781 23.285156 -91.328125 19.921875 -91.328125 Z M 19.921875 -91.328125 "/></g></g></g><g fill="#ec9b17" fill-opacity="1"><g transform="translate(359.687228, 725.591934)"><g><path d="M 41.15625 0 L 2.9375 -109.125 L 27.6875 -109.125 L 45.1875 -56.390625 C 47.289062 -49.753906 49.425781 -42.46875 51.59375 -34.53125 C 53.769531 -26.59375 56.078125 -17.9375 58.515625 -8.5625 L 53.328125 -8.5625 C 55.710938 -18.039062 57.953125 -26.722656 60.046875 -34.609375 C 62.148438 -42.492188 64.207031 -49.753906 66.21875 -56.390625 L 83.125 -109.125 L 107.671875 -109.125 L 70.3125 0 Z M 41.15625 0 "/></g></g></g><g fill="#ec9b17" fill-opacity="1"><g transform="translate(460.541714, 725.591934)"><g><path d="M 45.625 1.609375 C 37.375 1.609375 30.257812 -0.0976562 24.28125 -3.515625 C 18.300781 -6.929688 13.6875 -11.765625 10.4375 -18.015625 C 7.1875 -24.265625 5.5625 -31.613281 5.5625 -40.0625 C 5.5625 -48.414062 7.171875 -55.726562 10.390625 -62 C 13.617188 -68.269531 18.160156 -73.175781 24.015625 -76.71875 C 29.878906 -80.257812 36.742188 -82.03125 44.609375 -82.03125 C 50.023438 -82.03125 55.050781 -81.148438 59.6875 -79.390625 C 64.332031 -77.640625 68.398438 -75.039062 71.890625 -71.59375 C 75.378906 -68.15625 78.085938 -63.859375 80.015625 -58.703125 C 81.941406 -53.554688 82.90625 -47.613281 82.90625 -40.875 L 82.90625 -34.796875 L 14.28125 -34.796875 L 14.28125 -48.5625 L 72.296875 -48.5625 L 62.109375 -44.96875 C 62.109375 -49.164062 61.445312 -52.800781 60.125 -55.875 C 58.8125 -58.957031 56.875 -61.335938 54.3125 -63.015625 C 51.75 -64.703125 48.585938 -65.546875 44.828125 -65.546875 C 41.066406 -65.546875 37.867188 -64.691406 35.234375 -62.984375 C 32.597656 -61.273438 30.582031 -58.929688 29.1875 -55.953125 C 27.789062 -52.972656 27.09375 -49.554688 27.09375 -45.703125 L 27.09375 -36.03125 C 27.09375 -31.488281 27.875 -27.628906 29.4375 -24.453125 C 31 -21.285156 33.207031 -18.882812 36.0625 -17.25 C 38.925781 -15.613281 42.257812 -14.796875 46.0625 -14.796875 C 48.65625 -14.796875 51.015625 -15.171875 53.140625 -15.921875 C 55.265625 -16.679688 57.070312 -17.78125 58.5625 -19.21875 C 60.050781 -20.664062 61.1875 -22.4375 61.96875 -24.53125 L 81.8125 -21.6875 C 80.539062 -17 78.253906 -12.90625 74.953125 -9.40625 C 71.660156 -5.914062 67.535156 -3.207031 62.578125 -1.28125 C 57.628906 0.644531 51.976562 1.609375 45.625 1.609375 Z M 45.625 1.609375 "/></g></g><g transform="translate(548.725304, 725.591934)"><g><path d="M 30.828125 -46.4375 L 30.828125 0 L 9.015625 0 L 9.015625 -80.859375 L 29.8125 -80.859375 L 30.109375 -60.5 L 28.265625 -60.5 C 30.460938 -67.332031 33.769531 -72.628906 38.1875 -76.390625 C 42.613281 -80.148438 48.289062 -82.03125 55.21875 -82.03125 C 60.832031 -82.03125 65.738281 -80.804688 69.9375 -78.359375 C 74.144531 -75.921875 77.394531 -72.40625 79.6875 -67.8125 C 81.976562 -63.226562 83.125 -57.710938 83.125 -51.265625 L 83.125 0 L 61.296875 0 L 61.296875 -47.390625 C 61.296875 -52.515625 60.003906 -56.503906 57.421875 -59.359375 C 54.835938 -62.210938 51.222656 -63.640625 46.578125 -63.640625 C 43.503906 -63.640625 40.78125 -62.96875 38.40625 -61.625 C 36.039062 -60.289062 34.1875 -58.351562 32.84375 -55.8125 C 31.5 -53.269531 30.828125 -50.144531 30.828125 -46.4375 Z M 30.828125 -46.4375 "/></g></g><g transform="translate(640.863971, 725.591934)"><g><path d="M 36.921875 1.171875 C 31.296875 1.171875 26.382812 -0.046875 22.1875 -2.484375 C 17.988281 -4.929688 14.742188 -8.460938 12.453125 -13.078125 C 10.160156 -17.691406 9.015625 -23.195312 9.015625 -29.59375 L 9.015625 -80.859375 L 30.828125 -80.859375 L 30.828125 -33.46875 C 30.828125 -28.34375 32.132812 -24.363281 34.75 -21.53125 C 37.363281 -18.695312 40.96875 -17.28125 45.5625 -17.28125 C 48.632812 -17.28125 51.351562 -17.9375 53.71875 -19.25 C 56.09375 -20.570312 57.945312 -22.515625 59.28125 -25.078125 C 60.625 -27.648438 61.296875 -30.765625 61.296875 -34.421875 L 61.296875 -80.859375 L 83.203125 -80.859375 L 83.203125 0 L 62.328125 0 L 62.03125 -20.359375 L 63.875 -20.359375 C 61.625 -13.523438 58.285156 -8.226562 53.859375 -4.46875 C 49.441406 -0.707031 43.796875 1.171875 36.921875 1.171875 Z M 36.921875 1.171875 "/></g></g><g transform="translate(733.002638, 725.591934)"><g><path d="M 45.625 1.609375 C 37.375 1.609375 30.257812 -0.0976562 24.28125 -3.515625 C 18.300781 -6.929688 13.6875 -11.765625 10.4375 -18.015625 C 7.1875 -24.265625 5.5625 -31.613281 5.5625 -40.0625 C 5.5625 -48.414062 7.171875 -55.726562 10.390625 -62 C 13.617188 -68.269531 18.160156 -73.175781 24.015625 -76.71875 C 29.878906 -80.257812 36.742188 -82.03125 44.609375 -82.03125 C 50.023438 -82.03125 55.050781 -81.148438 59.6875 -79.390625 C 64.332031 -77.640625 68.398438 -75.039062 71.890625 -71.59375 C 75.378906 -68.15625 78.085938 -63.859375 80.015625 -58.703125 C 81.941406 -53.554688 82.90625 -47.613281 82.90625 -40.875 L 82.90625 -34.796875 L 14.28125 -34.796875 L 14.28125 -48.5625 L 72.296875 -48.5625 L 62.109375 -44.96875 C 62.109375 -49.164062 61.445312 -52.800781 60.125 -55.875 C 58.8125 -58.957031 56.875 -61.335938 54.3125 -63.015625 C 51.75 -64.703125 48.585938 -65.546875 44.828125 -65.546875 C 41.066406 -65.546875 37.867188 -64.691406 35.234375 -62.984375 C 32.597656 -61.273438 30.582031 -58.929688 29.1875 -55.953125 C 27.789062 -52.972656 27.09375 -49.554688 27.09375 -45.703125 L 27.09375 -36.03125 C 27.09375 -31.488281 27.875 -27.628906 29.4375 -24.453125 C 31 -21.285156 33.207031 -18.882812 36.0625 -17.25 C 38.925781 -15.613281 42.257812 -14.796875 46.0625 -14.796875 C 48.65625 -14.796875 51.015625 -15.171875 53.140625 -15.921875 C 55.265625 -16.679688 57.070312 -17.78125 58.5625 -19.21875 C 60.050781 -20.664062 61.1875 -22.4375 61.96875 -24.53125 L 81.8125 -21.6875 C 80.539062 -17 78.253906 -12.90625 74.953125 -9.40625 C 71.660156 -5.914062 67.535156 -3.207031 62.578125 -1.28125 C 57.628906 0.644531 51.976562 1.609375 45.625 1.609375 Z M 45.625 1.609375 "/></g></g></g></svg>